<svg xmlns="http://www.w3.org/2000/svg" viewBox="0 0 660 31.59"><g id="レイヤー_2" data-name="レイヤー 2"><g id="テキスト"><path d="M215,23.1c0,1.82,1.12,2.48,3.76,2.48,3,0,5.87-.2,8.52-.46l-.3,4.45c-2.15.14-5.88.27-9,.27-6,0-7.52-2.08-7.52-5.42V18.05H205.1c-.93,0-2.61.1-3.6.17V13.9c.92.06,2.57.16,3.6.16h5.38V8.45h-3.6c-1.19,0-2.25,0-3.2.1V4.42c.95.07,2,.17,3.2.17h15.87a24.2,24.2,0,0,0,3-.17V8.55c-.85,0-1.78-.1-3-.1H215v5.61h10c.7,0,2.35-.07,3.21-.13l0,4.22c-.92-.1-2.41-.1-3.14-.1H215Z" style="fill:#6a3906"/><path d="M258.16,12.41a25.45,25.45,0,0,0,3-.2V16.5c-.83-.06-2.08-.1-3-.1h-8a21,21,0,0,1-2.11,8.49,15.87,15.87,0,0,1-6.64,6.33l-3.86-2.8a13.61,13.61,0,0,0,6-4.72,14.2,14.2,0,0,0,2-7.3h-9.08c-.95,0-2.24.07-3.16.14V12.21a25.41,25.41,0,0,0,3.16.2ZM240.74,7.92c-1.13,0-2.54,0-3.54.1V3.76a24.06,24.06,0,0,0,3.54.27h10.79a25.1,25.1,0,0,0,3.56-.27V8c-1.12-.06-2.41-.1-3.56-.1ZM257,7.16a43.83,43.83,0,0,0-2.61-4.59l2.64-1.08c.83,1.22,2,3.3,2.61,4.52Zm4-1.52a38.76,38.76,0,0,0-2.64-4.55L261,0a42.45,42.45,0,0,1,2.64,4.49Z" style="fill:#6a3906"/><path d="M265.32,27.46a15.57,15.57,0,0,0,5.61-7.89c.93-2.84,1-9.07,1-13.07a11.89,11.89,0,0,0-.3-3h4.85a21.64,21.64,0,0,0-.23,3c0,3.89-.1,10.86-1,14.19a19.09,19.09,0,0,1-5.87,9.47Zm15.28.5a12.8,12.8,0,0,0,.27-2.45V6.27a14.75,14.75,0,0,0-.27-2.84h4.92a17.23,17.23,0,0,0-.23,2.87V23.57a21,21,0,0,0,8.15-7L296,20.23a36.21,36.21,0,0,1-11.19,9,9,9,0,0,0-1.45,1Z" style="fill:#6a3906"/><path d="M321,29.41c0-.53,0-1.09,0-1.72H306c-1.29,0-3.17.1-4.26.2V23.17c1.16.1,2.64.2,4.13.2h15.21V9.7H306.27c-1.38,0-3.16.07-4.09.14V5.25c1.22.13,2.94.2,4.09.2h16.61c.95,0,2.34,0,2.9-.07,0,.76-.1,2.08-.1,3V25.51c0,1.16.07,2.91.13,3.9Z" style="fill:#6a3906"/><path d="M333,13.4c1.18.1,3.59.2,5.31.2h17.72c1.52,0,3-.13,3.87-.2v5.18c-.8,0-2.48-.16-3.87-.16H338.35c-1.88,0-4.09.06-5.31.16Z" style="fill:#6a3906"/><path d="M390.53,6.3a15.75,15.75,0,0,0-1.16,2.05,48.29,48.29,0,0,1-5.18,9.08,92.62,92.62,0,0,1,9.21,9.44l-3.77,3.26a75.44,75.44,0,0,0-8.31-9.34,43.56,43.56,0,0,1-12.41,9.28l-3.4-3.57A37.3,37.3,0,0,0,379,17,25.58,25.58,0,0,0,384,9H372.77c-1.39,0-3.2.19-3.9.23V4.49a37.68,37.68,0,0,0,3.9.23h11.62a11.94,11.94,0,0,0,3.43-.43Z" style="fill:#6a3906"/><path d="M401.58,20.6a30.73,30.73,0,0,1-2,8.51,19.89,19.89,0,0,0-3-1.42A23.8,23.8,0,0,0,398.34,20Zm5.84-9.21a27.91,27.91,0,0,1,2.9,7l-2.77,1.26a14.89,14.89,0,0,0-.43-1.68l-1.68.13v13.5H402V18.32l-4.79.3-.33-3.4,2.38-.1c.5-.63,1-1.36,1.55-2.12A32.64,32.64,0,0,0,397,8.52l1.88-2.68.76.66A41.88,41.88,0,0,0,402,.76L405.41,2c-1.19,2.25-2.51,4.82-3.7,6.64.4.46.79.89,1.12,1.32a60.58,60.58,0,0,0,2.94-5.35L409,6.11c-1.81,2.87-4.09,6.2-6.17,8.87l3.17-.13c-.37-.82-.76-1.65-1.16-2.37Zm.86,8.38a36.49,36.49,0,0,1,2,5.94l-2.9,1.06a40.43,40.43,0,0,0-1.91-6.14ZM427.16,2.28s0,1,0,1.42c-.19,6.86-.43,9.7-1.25,10.72a3.33,3.33,0,0,1-2.44,1.29,30.13,30.13,0,0,1-4,.1,8.33,8.33,0,0,0-1.12-3.63c1.38.13,2.7.13,3.33.13a1.36,1.36,0,0,0,1.06-.33c.39-.49.59-2.14.76-6.1h-4.82c-.66,4.58-2.28,8.38-7.36,10.79a10.47,10.47,0,0,0-2.31-2.94c4.09-1.78,5.31-4.55,5.81-7.85h-4.46V2.28ZM411.45,17.56H426.5v13.8h-3.8V30.1H415v1.39h-3.59ZM415,21v5.61h7.66V21Z" style="fill:#6a3906"/><path d="M432.27,16.3a14.16,14.16,0,0,0-2.41-3.23A31.66,31.66,0,0,0,443.09.66h4.19a29.62,29.62,0,0,0,14,12,19.66,19.66,0,0,0-2.58,3.6C453.46,13.53,448,9,445.37,4.65,442.83,8.85,437.78,13.4,432.27,16.3Zm9.47-3.39V17c0,4.65-.69,10.49-7.13,14.55a15.22,15.22,0,0,0-3.27-2.8c5.78-3.44,6.34-8.09,6.34-11.85v-4Zm11.39-.17V31.52H449V12.74Z" style="fill:#6a3906"/><line x1="489.29" y1="17.99" x2="655.71" y2="17.99" style="fill:none;stroke:#cda232;stroke-miterlimit:10;stroke-width:2.4000000000000004px"/><path d="M489.51,22.5A4.51,4.51,0,1,1,494,18,4.51,4.51,0,0,1,489.51,22.5Z" style="fill:#cda232"/><path d="M655.49,22.5A4.51,4.51,0,1,0,651,18,4.51,4.51,0,0,0,655.49,22.5Z" style="fill:#cda232"/><line x1="4.29" y1="17.99" x2="170.71" y2="17.99" style="fill:none;stroke:#cda232;stroke-miterlimit:10;stroke-width:2.4000000000000004px"/><path d="M4.51,22.5A4.51,4.51,0,1,1,9,18,4.51,4.51,0,0,1,4.51,22.5Z" style="fill:#cda232"/><path d="M170.49,22.5A4.51,4.51,0,1,0,166,18,4.51,4.51,0,0,0,170.49,22.5Z" style="fill:#cda232"/></g></g></svg>