<svg xmlns="http://www.w3.org/2000/svg" viewBox="0 0 800 22.01"><g id="レイヤー_2" data-name="レイヤー 2"><g id="テキスト"><path d="M319.84,16.1c0,1.26.78,1.72,2.62,1.72,2.07,0,4.1-.14,5.94-.32l-.21,3.1c-1.5.1-4.09.19-6.25.19-4.21,0-5.25-1.45-5.25-3.77V12.58h-3.75c-.64,0-1.81.07-2.5.11v-3c.64.05,1.79.12,2.5.12h3.75V5.89h-2.5c-.83,0-1.57,0-2.23.07V3.08c.66,0,1.4.12,2.23.12h11.06a16.87,16.87,0,0,0,2.07-.12V6c-.6,0-1.25-.07-2.07-.07h-5.41V9.8h7c.48,0,1.63-.05,2.23-.1l0,3c-.64-.07-1.68-.07-2.18-.07h-7Z" style="fill:#6a3906"/><path d="M349.92,8.65a17.89,17.89,0,0,0,2.1-.14v3c-.58-.05-1.45-.07-2.1-.07h-5.54a14.42,14.42,0,0,1-1.47,5.91,11,11,0,0,1-4.62,4.41L335.6,19.8a9.37,9.37,0,0,0,4.16-3.29,10,10,0,0,0,1.43-5.08h-6.33c-.66,0-1.56,0-2.2.09v-3a17.8,17.8,0,0,0,2.2.14ZM337.78,5.52c-.78,0-1.77,0-2.46.07v-3a16.56,16.56,0,0,0,2.46.19h7.52a17.51,17.51,0,0,0,2.49-.19v3c-.79,0-1.68-.07-2.49-.07ZM349.14,5a31.85,31.85,0,0,0-1.81-3.2L349.17,1A34.83,34.83,0,0,1,351,4.19Zm2.76-1.06A27,27,0,0,0,350.06.76L351.88,0a29.17,29.17,0,0,1,1.84,3.13Z" style="fill:#6a3906"/><path d="M354.92,19.13a10.83,10.83,0,0,0,3.91-5.49c.64-2,.67-6.33.67-9.11a8.24,8.24,0,0,0-.21-2.09h3.38a15.09,15.09,0,0,0-.16,2.07c0,2.71-.07,7.56-.69,9.88a13.33,13.33,0,0,1-4.09,6.6Zm10.65.35a9,9,0,0,0,.18-1.7V4.37a10.64,10.64,0,0,0-.18-2H369a12.16,12.16,0,0,0-.16,2v12a14.62,14.62,0,0,0,5.68-4.85l1.77,2.53a25.39,25.39,0,0,1-7.79,6.27,5.61,5.61,0,0,0-1,.69Z" style="fill:#6a3906"/><path d="M393.74,20.49c0-.37,0-.76,0-1.2H383.28c-.9,0-2.21.07-3,.14V16.14c.81.07,1.84.14,2.88.14h10.6V6.76H383.46c-1,0-2.21,0-2.85.09V3.66c.85.09,2.05.13,2.85.13H395c.66,0,1.63,0,2,0,0,.53-.07,1.45-.07,2.11V17.78c0,.8,0,2,.09,2.71Z" style="fill:#6a3906"/><path d="M402.12,9.34c.82.07,2.5.13,3.7.13h12.35c1.05,0,2.09-.09,2.69-.13V13c-.56,0-1.73-.12-2.69-.12H405.82c-1.31,0-2.85.05-3.7.12Z" style="fill:#6a3906"/><path d="M442.18,4.39a10.39,10.39,0,0,0-.81,1.43,33.85,33.85,0,0,1-3.61,6.32,64.51,64.51,0,0,1,6.42,6.58L441.56,21a52.81,52.81,0,0,0-5.8-6.5A30.36,30.36,0,0,1,427.12,21l-2.37-2.49a26.16,26.16,0,0,0,9.43-6.59,17.93,17.93,0,0,0,3.42-5.64h-7.79c-1,0-2.23.14-2.72.16V3.13a26.35,26.35,0,0,0,2.72.16h8.09a8.33,8.33,0,0,0,2.39-.3Z" style="fill:#6a3906"/><path d="M449.89,14.35a21.48,21.48,0,0,1-1.38,5.93,14,14,0,0,0-2.1-1A16.47,16.47,0,0,0,447.63,14ZM454,7.93a19.64,19.64,0,0,1,2,4.88l-1.93.87a11.27,11.27,0,0,0-.3-1.17l-1.17.09V22h-2.37V12.76l-3.34.21-.23-2.37,1.66-.07c.34-.44.71-.94,1.08-1.47a22.9,22.9,0,0,0-2.71-3.13L448,4.07l.53.46a30.51,30.51,0,0,0,1.68-4l2.36.87C451.73,3,450.81,4.76,450,6c.27.33.55.63.78.92a41,41,0,0,0,2.05-3.72l2.23,1c-1.27,2-2.85,4.33-4.3,6.19l2.2-.09c-.25-.58-.52-1.15-.8-1.66Zm.59,5.84A24.63,24.63,0,0,1,456,17.91l-2,.74a27.61,27.61,0,0,0-1.34-4.28ZM467.71,1.59s0,.66,0,1c-.13,4.78-.29,6.76-.87,7.47a2.35,2.35,0,0,1-1.7.9,19.87,19.87,0,0,1-2.81.06,5.63,5.63,0,0,0-.78-2.52c1,.09,1.89.09,2.32.09a1,1,0,0,0,.74-.23c.28-.35.41-1.5.53-4.26h-3.36c-.46,3.2-1.58,5.84-5.13,7.52a7,7,0,0,0-1.61-2,6.31,6.31,0,0,0,4.05-5.48H456V1.59ZM456.76,12.23h10.49v9.62H464.6V21h-5.33v1h-2.51Zm2.51,2.42v3.91h5.33V14.65Z" style="fill:#6a3906"/><path d="M471.28,11.36a9.71,9.71,0,0,0-1.68-2.25A22.19,22.19,0,0,0,478.82.46h2.92a20.65,20.65,0,0,0,9.75,8.32,13.81,13.81,0,0,0-1.79,2.51,25.13,25.13,0,0,1-9.29-8A24.68,24.68,0,0,1,471.28,11.36ZM477.88,9v2.85c0,3.24-.49,7.32-5,10.14A10.65,10.65,0,0,0,470.63,20c4-2.39,4.42-5.64,4.42-8.26V9Zm7.93-.11V22H483V8.88Z" style="fill:#6a3906"/><line x1="522.86" y1="11.29" x2="797.14" y2="11.29" style="fill:none;stroke:#cda232;stroke-miterlimit:10;stroke-width:1.6px"/><circle cx="523.01" cy="11.29" r="3.01" style="fill:#cda232"/><circle cx="796.99" cy="11.29" r="3.01" style="fill:#cda232"/><line x1="2.86" y1="11.29" x2="277.14" y2="11.29" style="fill:none;stroke:#cda232;stroke-miterlimit:10;stroke-width:1.6px"/><path d="M3,14.3a3,3,0,1,1,3-3A3,3,0,0,1,3,14.3Z" style="fill:#cda232"/><path d="M277,14.3a3,3,0,1,0-3-3A3,3,0,0,0,277,14.3Z" style="fill:#cda232"/></g></g></svg>