<svg xmlns="http://www.w3.org/2000/svg" viewBox="0 0 558.03 87.13"><g id="レイヤー_2" data-name="レイヤー 2"><g id="テキスト"><path d="M151.42,25.26,149,29a87.06,87.06,0,0,0-7.52-4.69l2.41-3.66C146.11,21.8,149.74,24.07,151.42,25.26Zm2.68,7.56a33.59,33.59,0,0,0,12.83-12.38l2.55,4.49a39.82,39.82,0,0,1-13.14,11.85,39.81,39.81,0,0,1-11,4.09l-2.48-4.35A36.66,36.66,0,0,0,154.1,32.82Zm2.41-15L154,21.47c-1.85-1.29-5.28-3.53-7.46-4.75L149,13.08C151.16,14.31,154.79,16.62,156.51,17.8Z" style="fill:#ef7b51"/><path d="M197.53,36a23,23,0,0,0,2.5-.2v4.33a15.76,15.76,0,0,0-2.5-.17H179.31a18.34,18.34,0,0,0-2.71.17V35.79a25.26,25.26,0,0,0,2.71.2H186V25.36h-5.15c-.69,0-1.88.07-2.61.13V21.34a17.59,17.59,0,0,0,2.61.16H196a24.62,24.62,0,0,0,2.57-.16v4.15c-.82-.06-1.85-.13-2.57-.13h-5.65V36Z" style="fill:#ef7b51"/><path d="M236.3,16.88A17.14,17.14,0,0,0,235,18.6a33.18,33.18,0,0,1-7.95,9l-3.4-2.74a19.64,19.64,0,0,0,6.07-6.14H212.54c-1.39,0-2.48.1-4,.23V14.41a27.28,27.28,0,0,0,4,.33h17.79a16.25,16.25,0,0,0,3.33-.3Zm-13.46,4.46c0,8.18-.17,14.91-9.18,19.73l-3.83-3.13a13.25,13.25,0,0,0,3.47-1.82c4.19-2.9,5-6.4,5-11.81a18.75,18.75,0,0,0-.23-3Z" style="fill:#ef7b51"/><path d="M251.94,24.67c-.16,10.66-.33,14.59-1.15,15.81a3,3,0,0,1-2.15,1.38,19.91,19.91,0,0,1-3.4.14,9.43,9.43,0,0,0-1-3.5c1,.1,1.88.13,2.41.13a1,1,0,0,0,.93-.49c.43-.7.62-3.5.76-11.42H246c-.13,5-1,10.69-4.59,15.47a16,16,0,0,0-2.9-2.4C242.14,35,242.6,29.39,242.6,25V19.92h-3.37V16.29h5v-5H248v5h4.88v2.5a23,23,0,0,0,3.1-7.52l3.87.72c-.27,1.09-.6,2.18-1,3.24H269.1v3.56H257.35a20.82,20.82,0,0,1-3.4,4.95,24,24,0,0,0-3.16-2.5A14.22,14.22,0,0,0,252,19.92h-6v3.23h5.91ZM270,27.41a52.51,52.51,0,0,1-5.09,4.19,13.82,13.82,0,0,0,5.22,7.1,13.52,13.52,0,0,0-2.67,3.3c-4.36-3.17-6.37-8.91-7.56-16l-1.16.5V42.06H255V27.84l-.69.2A18.19,18.19,0,0,0,252,24.77c4.65-.93,10.56-3.34,13.5-5.61l2.8,2a30.09,30.09,0,0,1-5.21,3.3c.2,1.29.46,2.58.76,3.8a28.9,28.9,0,0,0,3.36-3.4Z" style="fill:#ef7b51"/><path d="M287.28,22.46a4.23,4.23,0,1,1-4.22,4.22A4.26,4.26,0,0,1,287.28,22.46Z" style="fill:#ef7b51"/><path d="M328.4,26a24.27,24.27,0,0,1-5,7.72,28.86,28.86,0,0,0,12.41,4.63,17.69,17.69,0,0,0-2.54,3.73,28.65,28.65,0,0,1-13-5.58,36.08,36.08,0,0,1-12.87,5.64,21.1,21.1,0,0,0-2.48-3.69,32.68,32.68,0,0,0,12.44-4.76,28.29,28.29,0,0,1-4.55-7.59L316.52,25a19.74,19.74,0,0,0,3.8,6.11,18.27,18.27,0,0,0,3.86-6.31Zm-10.72-5.28a37.23,37.23,0,0,1-9.11,8.09,32.93,32.93,0,0,0-3.3-3,25.38,25.38,0,0,0,8.35-6.63Zm8.87-1.85H305.73V15.07H318.2V11.24h4v3.83h12.64v3.82h-8.12a54.34,54.34,0,0,1,8.55,6.93l-3.5,2.71c-1.65-2.11-5.41-5.18-8.38-7.36Z" style="fill:#ef7b51"/><path d="M343.75,26.72a25.5,25.5,0,0,0-5.95-3.47l2.08-2.94A23.18,23.18,0,0,1,346,23.45Zm3.86,4.39C346,34.6,344,38.4,342.16,41.63l-3.43-2.44a105,105,0,0,0,5.91-10.53ZM345.53,17.9a23,23,0,0,0-5.84-3.56l2.14-2.94a26,26,0,0,1,6,3.27Zm4.65,9.28h3.53v3.2c0,3.66-.56,8.28-5,11.62A11.38,11.38,0,0,0,346,39.42c3.79-2.7,4.22-6.33,4.22-9.17Zm5.45-11.95V11.3h4v3.93h8.78v3.5H357.71c-.7,1.29-1.42,2.57-2.08,3.73,2,0,4.12-.1,6.23-.2-.56-.59-1.12-1.22-1.65-1.75l3-1.62a32,32,0,0,1,5.68,6.93l-3.3,1.79a13.09,13.09,0,0,0-1.22-2.12c-5.78.37-11.82.63-16.18.83l-.39-3.66c1.12,0,2.37,0,3.76-.07.56-1.19,1.19-2.57,1.65-3.86h-5.61v-3.5Zm0,12.25h3.43v13.2h-3.43Zm10,11a.61.61,0,0,0,.43-.13c.13-.07.2-.33.26-.86s.07-1.65.1-3.14a8.77,8.77,0,0,0,2.64,1.45,23.68,23.68,0,0,1-.39,3.87,2.46,2.46,0,0,1-1.09,1.48,3.91,3.91,0,0,1-1.82.43h-1.68a3.29,3.29,0,0,1-2.25-.82c-.52-.53-.75-1.26-.75-3.47V27.18h3.59V37.41a2.7,2.7,0,0,0,.07.92.46.46,0,0,0,.36.17Z" style="fill:#ef7b51"/><path d="M383.94,24.67c-.16,10.66-.33,14.59-1.16,15.81a3,3,0,0,1-2.14,1.38,19.91,19.91,0,0,1-3.4.14,9.43,9.43,0,0,0-1-3.5c1,.1,1.88.13,2.41.13a1,1,0,0,0,.93-.49c.43-.7.62-3.5.76-11.42H378c-.13,5-1,10.69-4.59,15.47a16,16,0,0,0-2.9-2.4C374.14,35,374.6,29.39,374.6,25V19.92h-3.37V16.29h4.95v-5H380v5h4.88v2.5a23,23,0,0,0,3.1-7.52l3.87.72c-.27,1.09-.6,2.18-1,3.24H401.1v3.56H389.35a20.82,20.82,0,0,1-3.4,4.95,23.44,23.44,0,0,0-3.17-2.5A13,13,0,0,0,384,19.92h-6v3.23h5.91ZM402,27.41a52.51,52.51,0,0,1-5.09,4.19,13.82,13.82,0,0,0,5.22,7.1,13.52,13.52,0,0,0-2.67,3.3c-4.36-3.17-6.38-8.91-7.56-16l-1.16.5V42.06H387V27.84l-.69.2A18.19,18.19,0,0,0,384,24.77c4.65-.93,10.56-3.34,13.5-5.61l2.8,2a30.09,30.09,0,0,1-5.21,3.3c.2,1.29.46,2.58.76,3.8a28.9,28.9,0,0,0,3.36-3.4Z" style="fill:#ef7b51"/><path d="M122.67,71.68a19.74,19.74,0,0,1,5.91-14.39l2.85,1.26a18.75,18.75,0,0,0,0,26.27l-2.85,1.26A19.77,19.77,0,0,1,122.67,71.68Z" style="fill:#ef7b51"/><path d="M145.2,78.31l-10.89,3.18-.9-3.36c1.2-.27,2.67-.66,4.29-1.08V71h-3.33V67.75h3.33V62.53h-3.6V59.24h10.5v3.29h-3.45v5.22h3.12V71h-3.12v5.14c1.17-.34,2.4-.67,3.57-1Zm13.32,4.17c.54,0,.66-.48.72-3.48a9.17,9.17,0,0,0,3,1.32c-.3,4.11-1.08,5.22-3.3,5.22h-2.25c-2.76,0-3.36-1-3.36-4.05V75.61h-1.83c-.54,4.89-1.92,8.37-8.31,10.26a10.57,10.57,0,0,0-2-2.94c5.43-1.35,6.39-3.81,6.78-7.32h-2.19V58.82h14.64V75.61h-3.69v5.88c0,.87.06,1,.57,1Zm-9.42-18.9h7.83V61.73H149.1Zm0,4.57h7.83V66.28H149.1Zm0,4.55h7.83V70.84H149.1Z" style="fill:#ef7b51"/><path d="M170.7,75c.93-.38,1.86-.78,2.76-1.17l.81,3.15c-3.18,1.59-6.6,3.18-9.36,4.47l-1.44-3.6c1.08-.39,2.4-.9,3.9-1.5V68h-3.51V64.57h3.51v-6.5h3.33v6.5h3V68h-3Zm16,6.9c1.65,0,1.95-.69,2.22-3.75a8.84,8.84,0,0,0,3.12,1.29c-.48,4.2-1.53,5.64-5,5.64h-6.39c-4,0-5.22-1.11-5.22-5.25V72.16l-1.62.69-1.32-3.18,2.94-1.22V60.56h3.42V67l2.49-1.06V57.65h3.33v6.84l2.37-1,.63-.42.63-.42,2.49.86-.12.6c0,5.7-.06,9.31-.21,10.53a2.56,2.56,0,0,1-1.53,2.49,8.36,8.36,0,0,1-3.12.42,9.79,9.79,0,0,0-.75-3,13.65,13.65,0,0,0,1.44.06c.36,0,.54-.12.66-.66s.09-2.67.09-6.93l-2.58,1.15V78.74h-3.33V69.58l-2.49,1.08v9.25c0,1.76.27,2,2.1,2Z" style="fill:#ef7b51"/><path d="M213.21,71.17v3.4h6.39v3.26h-6.39v3.24c0,1.08.12,1.26,1,1.26h2.31c.78,0,.93-.6,1.05-3.42a8.88,8.88,0,0,0,3.21,1.41c-.36,4-1.29,5.16-3.93,5.16h-3.27c-3.24,0-4-1-4-4.38V77.83h-4c-.66,3.15-2.64,6.12-8.19,8A13.6,13.6,0,0,0,195.06,83c4.14-1.26,5.94-3.12,6.69-5.13h-5.94V74.57h6.42v-3.4h-2.52v-1a23.83,23.83,0,0,1-4,2.37,15.51,15.51,0,0,0-2.16-2.7,18.31,18.31,0,0,0,5-3.09,33.56,33.56,0,0,0-3-2.54l2.25-1.86c.9.63,2,1.5,2.88,2.21a16.7,16.7,0,0,0,1.89-2.69h-6.12V58.82h7.83l.63-.12,2.4,1.11a20.6,20.6,0,0,1-4.89,8H213.3a27.4,27.4,0,0,1-5.46-9.17l3.21-.9a20.31,20.31,0,0,0,1.5,3.2,27.22,27.22,0,0,0,2.67-2.78l2.7,1.92c-1.23,1.11-2.61,2.27-3.84,3.18.42.53.87,1.05,1.35,1.55a29,29,0,0,0,3.36-3.23l2.61,1.86c-1.23,1.1-2.67,2.31-4,3.24a18.68,18.68,0,0,0,4.65,2.72,13.61,13.61,0,0,0-2.46,3.09,20.91,20.91,0,0,1-3.69-2.25v1Zm-3.72,0H205.8v3.4h3.69Z" style="fill:#ef7b51"/><path d="M234.15,71.29c-.15.42-.3.81-.48,1.2h14.76V85.63h-3.72v-.87H234.24v.87h-3.57V77.68a22.81,22.81,0,0,1-4.56,4.59,20.41,20.41,0,0,0-2.67-2.67,18.27,18.27,0,0,0,6.87-8.31h-5.76V68.5h11.37V67.22H227.4V64.64h8.52V63.38h-10V60.61h5a12.65,12.65,0,0,0-1.29-2l3.15-1a10.5,10.5,0,0,1,1.92,2.94l-.15,0h6.6l-.21,0a16.47,16.47,0,0,0,1.56-2.94l3.9.93c-.6.77-1.17,1.47-1.68,2.06h5.1v2.77H239.55v1.26h8.7v2.58h-8.7V68.5H251v2.79Zm.09,3.72v1.08h10.47V75Zm10.47,3.06H234.24v1.09h10.47Zm0,4.17V81.13H234.24v1.11Z" style="fill:#ef7b51"/><path d="M262.11,70l-3.87,1.4a73.91,73.91,0,0,0-3.45-8.48l3.84-1.33C259.56,63.47,261.42,67.93,262.11,70Zm18.54-7.87a21,21,0,0,0-.75,2.34,34.32,34.32,0,0,1-5,11.29,27.22,27.22,0,0,1-11.79,8.78l-3.36-3.36a24.07,24.07,0,0,0,11.85-7.74c2.46-3.11,4.17-8.49,4.62-12.6Zm-10.53,5.64-3.78,1.32A77.43,77.43,0,0,0,263.22,61L267,59.72A73.1,73.1,0,0,1,270.12,67.75Z" style="fill:#ef7b51"/><path d="M311.43,62.78a15,15,0,0,0-1.17,1.55A30.19,30.19,0,0,1,303,72.55l-3.09-2.48a18.05,18.05,0,0,0,5.52-5.58H289.83c-1.26,0-2.25.08-3.66.21V60.53a23.81,23.81,0,0,0,3.66.29H306a15,15,0,0,0,3-.26Zm-12.24,4c0,7.44-.15,13.56-8.34,17.94l-3.48-2.85a11.85,11.85,0,0,0,3.15-1.65c3.81-2.64,4.53-5.82,4.53-10.74a16.63,16.63,0,0,0-.21-2.7Z" style="fill:#ef7b51"/><path d="M315.54,69.19c1.08.09,3.27.18,4.83.18h16.11c1.38,0,2.73-.12,3.51-.18v4.72c-.72,0-2.25-.16-3.51-.16H320.37c-1.71,0-3.72.07-4.83.16Z" style="fill:#ef7b51"/><path d="M352.89,71.68A19.77,19.77,0,0,1,347,86.08l-2.85-1.26a18.75,18.75,0,0,0,0-26.27L347,57.29A19.74,19.74,0,0,1,352.89,71.68Z" style="fill:#ef7b51"/><path d="M378.36,76.14a30.38,30.38,0,0,1-2,8.51,19.45,19.45,0,0,0-3-1.42,23.74,23.74,0,0,0,1.75-7.65Zm5.84-9.21a28.41,28.41,0,0,1,2.91,7l-2.78,1.25a15.45,15.45,0,0,0-.43-1.68l-1.68.13v13.5h-3.4V73.86l-4.79.3-.33-3.4,2.38-.1c.5-.63,1-1.35,1.55-2.11a32,32,0,0,0-3.89-4.49l1.88-2.67.76.66a42.52,42.52,0,0,0,2.41-5.75l3.4,1.26c-1.19,2.24-2.51,4.82-3.7,6.63.4.46.79.89,1.12,1.32a58.1,58.1,0,0,0,2.94-5.35l3.2,1.49c-1.81,2.87-4.09,6.2-6.17,8.88l3.17-.13c-.36-.83-.76-1.66-1.16-2.38Zm.86,8.38a37.56,37.56,0,0,1,2.05,5.94l-2.91,1.06a39.33,39.33,0,0,0-1.91-6.14Zm18.88-17.49s0,1,0,1.42c-.19,6.86-.42,9.7-1.25,10.73a3.35,3.35,0,0,1-2.44,1.28,27,27,0,0,1-4,.1,8.37,8.37,0,0,0-1.12-3.63c1.39.13,2.71.13,3.33.13a1.34,1.34,0,0,0,1.06-.33c.39-.49.59-2.14.76-6.1h-4.82c-.66,4.59-2.28,8.38-7.36,10.79a10.47,10.47,0,0,0-2.31-2.94c4.09-1.78,5.31-4.55,5.81-7.85h-4.46v-3.6ZM388.23,73.1h15V86.9h-3.8V85.64h-7.66V87h-3.59Zm3.59,3.47v5.61h7.66V76.57Z" style="fill:#ef7b51"/><path d="M409.05,71.85a14.21,14.21,0,0,0-2.41-3.24A31.6,31.6,0,0,0,419.87,56.2h4.2a29.6,29.6,0,0,0,14,12,19.48,19.48,0,0,0-2.57,3.6c-5.25-2.68-10.67-7.26-13.34-11.55C419.61,64.39,414.56,68.94,409.05,71.85Zm9.47-3.4v4.09c0,4.65-.69,10.5-7.13,14.56a15,15,0,0,0-3.27-2.81c5.78-3.43,6.34-8.09,6.34-11.85v-4Zm11.39-.17V87.06h-4.09V68.28Z" style="fill:#ef7b51"/><path d="M0,66.75l.25.74,2.37.85.37.49c.48.26,1,.12,1.55.3l.38.49.5.25.37-.13.31.3.37-.12,1.31.79.37-.13.31.31.37-.13c.1.11.21.21.31.31l.74-.25.32.3h.62l.06.18.56-.19,1.3.8.5-.38.06.19A10,10,0,0,1,14.36,73l-.18.06c-.15.38-.29.46-.8.69l.13.37c-.48.63-.24,1.27-1,1.81l.13.37c-.19.28-.16.63-.31.93A14.64,14.64,0,0,0,11,80l.12.38-.18.06.38,1.11h.62c1.12.56,4.64-.82,5.62-1.72l-.06-.19.67-.44L18.07,79l.37-.12.06-.44.37-.12.06-.44.37-.13.3-.93.37-.12-.06-.19.49-.38.06-.43.37-.13.3-.93.37-.13.06-.43.49-.38L22,73.5l.37-.13.18-.68.68-.44c0-.14,0-.29.05-.44l.37-.12-.06-.19.86-.5.18-.68L28.51,69l-.06-.18.56-.19-.07-.19,7.79-2.67-.07-.18.74-.26-.06-.18,1.85-.64C40.7,64,42.75,63,44.07,63c0,.42,0,.83,0,1.24l-.3.31.19.56-.31.31c0,.42,0,.83,0,1.24-.1.11-.2.21-.31.31,0,1.24,0,2.48,0,3.72l-.19.06.13.37-.19.07.13.37c-.1.1-.2.21-.31.31,0,.27.05.54.07.81l-.18.06c.06.39.13.78.19,1.17l-.3.32c0,.33.09.66.13,1l-.19.06.13.37-.18.06.12.37a2.52,2.52,0,0,0,0,1.86,2.13,2.13,0,0,0,.8-.06c.48-.92,1.55-.61,2.47-1.27L46,76.45l.74-.26L46.66,76l1.86-.64-.07-.18.75-.26-.07-.18,1.11-.38-.06-.19.56-.19-.07-.18,2.6-.89-.07-.19.74-.25-.06-.19.56-.19c.39-.38.3-1,.54-1.43.17-.12.33-.25.49-.38l-.06-.18.37-.13c.26-.64.53-1.28.79-1.93l.37-.12.18-.69.37-.12-.06-.19.49-.37.06-.44.37-.12c.38-.9.77-1.79,1.15-2.68l.74-.87c0-.21,0-.41,0-.62l.68-.44L61,61l.37-.12-.07-.19.56-.19-.06-.18.3-.32L62,59.58l.3-.31-.06-.18.37-.13-.06-.19.37-.12.54-1.43.37-.13.18-.68.37-.13.18-.68.19-.07.24-1.11.92-.32c.75-1.33,4-1.46,5.62-2.34l.19-.07-.07-.18.74-.26-.06-.18,2.59-.89L74.81,50l2.71-1.14L82.9,47l-.06-.18.74-.26-.07-.18,2.23-.77c1.51-1.08,3.57-2.09,5.11-3.2L93.5,41.1l-.06-.19.55-.19-.06-.19.56-.19-.07-.18L95,40l-.06-.19,1-.56L95.9,39l.68-.44-.07-.18.37-.13.06-.43.74-.88-.45-1.92-.19.07-.63-1.24-2.92-1.27-1.18.2-.06-.19-.8.07-.07-.19-.55.19-.07-.18-.55.19-.07-.19-.55.19-.07-.18-.92.32-.07-.19-.37.13-.06-.19L64,40.86l.07.18-.74.26.06.18-2.6.89a5.09,5.09,0,0,1-1.72,1c-.47-.35-.81-.19-1.37-.36l-.31-.31-1.18-.42-.13-.37-.49-.25-.38.13-.56-.43-.37.13-1.37-1-.37.13-.5-.25-.37.13-.06-.18-.37.12-.06-.18-.38.13-.06-.19h-.62l-.31-.31-.37.12-.31-.3-.37.13-.57-.43-.37.12-.31-.3-.37.12-1.06-.67h-.62l-.31-.31H43.92l-.31-.31-.81.07-.31-.3-.8.06-.32-.3-.8.07-.31-.31-.37.13-1.31-.8-.37.13-.56-.43-.37.13-1.56-.92-.37.13-1.06-.67-1.42.07-1.56-.91-1.43.07-.81-.55-.37.13-.06-.19-.37.13-.06-.19-.56.2c-.1-.11-.21-.21-.31-.31l-.37.12-.56-.42-1,.13-.32-.31-.37.13L24.67,33l-.37.13L24.24,33l-.56.19L23.62,33l-.56.19-.81-.55-.37.13-.5-.25-.37.13L21,32.44l-.37.12-.07-.18-.37.13-.06-.19-.37.13-.31-.31-.37.13L18.71,32l-.37.13-.56-.43-.37.13-.06-.19-2.6.89-.06-.19-.56.2-.06-.19L6.1,35l.07.19-.74.25.06.19-1.11.38.06.19-.86.5.25.74c.71.15.76.38,1.31.79l.43.06.13.37,2.43,1,.44.67,1.68.67L11.8,42l.68.18.44.68,2.18.91.13.37.43.06.13.37,1.43.55.44.67,1.68.67.12.37.44.06.12.37,1.43.54.13.38.43,0,.13.37,1.43.55.13.37.43.06.13.37,1.18.42.13.37.68.18.13.37.18-.06.56.43.94.3.12.37.19-.06.13.37.18-.07.31.31,1.68.67.19.55.44.06.12.37.19-.06.13.37.68.18.06.18.69.19.43.67.94.3-.13.25.07.19L33,57.3l.06.18-.93.32.07.18-1.11.39.06.18-.74.26.06.18-.93.32.07.18-1.23.64.06.18-.56.19.07.19c-.42.21-.83.41-1.24.63l.07.18-.93.32.06.18-.55.19.06.19-1.11.38c-.21.15-1.49,1.27-1.85,1.26l-.56-.43-2,.26-.06-.18-.81.07L19,63.55l-1.86,0-.06-.19-.37.13-.07-.19-1.11.38-.06-.18-.37.13-.56-.43-1.3.44-.06-.18-1,.13-.07-.18-.37.12-.06-.18-.93.32-.06-.19-.37.13-.07-.19-1,.13-.06-.18-1.11.38L8,63.59l-.55.19-.06-.19-.75.26-.31-.31L3,64.68l.06.19-.56.19.07.18-1.11.39.06.18c-.44.35-1.11.45-1.36.88ZM60,45.54a10.23,10.23,0,0,0,2.61,1l.06.18-.18.07c-.47,1.72-2.2,1-3.64,2.07l.06.19-.74.25.07.19L56,50.22l.07.18-.56.19.06.19-2.22.76.06.19-.55.19.06.18-3.15,1.08.06.19-.55.19.06.19-1.85.63.06.19-.55.19.06.18-1.85.64.06.18-.74.26.06.18-4.44,1.53a10.92,10.92,0,0,0-3-2.08L36,55.23l-.12-.38-.44-.05-.12-.37-1.43-.55c-.15-.23-.3-.45-.44-.68L33,53.15l-.19-.56-1.18-.42L31.59,52l-.69-.18-.12-.37-.19.06-.12-.37-1.68-.66-.13-.37L28.23,50l-.38-.49L26.42,49l-.13-.37-.43-.06-.13-.37-1.18-.42-.13-.37L24,47.34l-.38-.49-1.43-.55-.12-.37-.69-.18-.12-.37-1.43-.54-.13-.38-.43-.05L19.13,44l-1.43-.55-.13-.37-.43-.06L17,42.69l-2.18-.91-.44-.68-1.18-.42-.31-.31-.37.13-.5-.24-.12-.37-.44-.06a4.25,4.25,0,0,1-1.93-1.41l-.37.13c-.91-.8-2.27-1-3-2.08L6,36.53l-.06-.18.18-.07c.29-.52,3-1.22,3.83-1.52l3.71-1.27.06.19.37-.13.07.18L16.37,33l.06.19L16.8,33l.56.43.37-.13.32.31.37-.13.31.31,1.86,0c.18.15.37.29.56.43l.37-.13.31.31.74-.25.07.18.8-.07.07.19.37-.13.31.31,1-.13.56.43h.62l.06.18,1-.13.81.55.37-.12.32.3.74-.25,1.06.67.37-.13c.18.15.37.29.56.43L32,36.3l.06.19.56-.19.81.55.37-.13,1.31.8h.62l.31.31.37-.13,1.56.92.37-.13.31.31h.62l.06.19.81-.07.31.3H41.7l.06.19h.62c.1.11.21.21.31.31l.81-.07.31.31.37-.13.81.55.37-.13.56.43.37-.12.56.42.81-.06.56.43.8-.07.57.42.37-.12.06.18.37-.12.5.24.37-.13.87.74.37-.13.56.43.38-.13,2.36,1.47.37-.13.32.31.37-.13,1.55.92.37-.13.32.31.37-.13ZM45.78,67.41l-.25-.75L46,66.1l-.19-.55.18-.07-.12-.37.18-.06-.13-.37.19-.06c.11-.69,0-2.64.41-3l8.15-2.8c.66-1.26,3.7-1.19,5.06-2.15l-.06-.18,1-.57A6.37,6.37,0,0,1,63,55.3l.07.19-.19.06L62.3,57l-.68.44c-.18.48-.37.95-.55,1.43L60.7,59l-.06.44-.49.37L59.73,61l-1,.75c0,.14,0,.29-.05.43l-.37.13-.06.43-.55.81.06.19-.37.13.06.18a2.07,2.07,0,0,1-.73.87l.12.38-.79,1.3.06.19-.67.44-.18.68-.68.44-.42,1.18-.37.13c-.15.39-.29.78-.43,1.18l-.37.13.06.18-.42.56-.06.44-1.67.57c-.38.71-1.19.53-1.91,1.07l.06.18-.55.19.06.19-1.67.57.07.19-1.79.82-.38-.49.31-.32-.26-.74.19-.06-.13-.37.31-.31-.13-.37.19-.07L45,72.43l.31-.31-.19-.56c.1-.1.2-.21.31-.31l-.13-.37.18-.06-.12-.37.18-.07-.19-.55.31-.32-.32-.92.19-.07-.13-.37.18-.06-.12-.37ZM22,71.21l.31.3-.18.07.06.18-.19.07C21.61,71.58,21.84,71.52,22,71.21Zm-1.8-.42-.31-.31-1.3.45-.06-.19-.56.19-.06-.18c-.77,0-1.51.75-2.11.51l-.18.06-.25-.74L17.12,69l1-.57-.06-.18.37-.13.06-.44.55-.19L19,67.27l.56-.19-.07-.19.56-.19L20,66.52l.74-.26-.07-.18.75-.26-.07-.18,1.3-.45L22.59,65l.56-.19-.06-.19.74-.25-.07-.19.37-.13-.06-.18,2.28-1.2a30.54,30.54,0,0,1,9.49-5.53l1.38,1,.43.06.13.37.18-.07,1.06.67,5.38-1.84c.49-.92,1.56-.58,2.46-1.26l-.06-.18.55-.2-.06-.18L49,54.93l-.07-.19.75-.25-.07-.19,3-1-.07-.19.75-.25-.07-.19,2-.7-.06-.18.74-.26-.07-.18,2-.7-.06-.19.74-.25L58.46,50l3.33-1.14-.06-.19L63,48.05l-.06-.18.67-.44-.06-.19c.59-.64,1-.39.73-1.49l-.18.06-.19-.55-.44-.06-1.31-.8c-.59-.27-1.15-.21-1.68-.66.56-.46,1.8-.54,2.54-1.08l-.07-.18.56-.19-.07-.19,16.5-5.66c2.54-.87,5.93-2.35,8.09-2.36l.93-.32L89,34l.37-.13.06.19.56-.19L90,34l.56-.19.06.19.81-.07.06.18.56-.19.06.19c.65.1.83,0,1.24.61l.38-.13c1.06.93,1.26.65,1.94,2.65l-.55.81.06.18-.37.13-.18.68-.37.13.06.18-.37.13.07.19-.74.25.06.19-.37.12.06.19-.92.31.06.19-.56.19.07.19-1.3.44.06.19-1.79.82.07.18-.74.26.06.18-1.79.82.06.19-2.4.83.06.18-.56.19.07.19-6.3,2.16-1.79.82.06.18-2.78,1,.07.18-.56.19.06.19-5.55,1.91.06.18-.56.19.07.19L62,54.38a5,5,0,0,0-1.73,1L55.67,57l.06.19-.74.25.06.19-8.34,2.86.07.18-2.35,1c-2.49.85-5.77,1.72-7.47,3l-5.93,2-2.34,1,.06.18Zm-4.56,3-.19-.55.19-.07c0-.2,0-.41,0-.62L17.33,72l.06.19,1.36-.26.63.61c.38.06,1.7-.52,2.1-.51l-.06.43-.49.38L21,73l-.37.13.07.18-.38.13c0,.23-.12.46-.18.68l-.37.13c0,.15,0,.29-.05.44l-.37.12-.06.44-.37.12-.3.94-.38.12-.05.44-.5.37.07.19-.37.13-.18.68-.37.13-.06.43-.37.13.06.18-.55.19.06.19-.37.12.06.19-1.85.64L13,79.9l.18-.07a5,5,0,0,1,.73-2.11l.31-.31L14.09,77c.22-.36.45-.71.67-1.06l-.13-.37ZM2.35,66.36l.19-.06-.07-.19c.66-.31,1.9-1.21,2.9-1.2l.07.18L5.81,65l.06.18.93-.32.06.19.56-.19.06.18.93-.31.06.18L9,64.69l.06.19.56-.19.06.18.37-.13.06.19,1.36-.26.07.19.8-.07.06.18,1.12-.38c.1.1.21.2.31.31l.37-.13.06.19,1.55-.33.06.19.56-.19.06.18.81-.07.06.19,3.1,0c0,.41.07.15-.06.43-.35.7-.87.44-1.54,1l.06.18-.55.19.06.19-.74.25.06.19-.37.13.07.18-.75.25-.05.44-.37.13.06.18-.37.13.06.18-.74.26.06.18-1.29,1.07L14,70.22h-.62l-.31-.31-.81.07L12,69.68l-.37.13c-.1-.1-.21-.2-.31-.31l-1.86,0L8.63,69l-.37.13-.81-.55c-.63-.2-.81,0-1.25-.61l-.37.12-.06-.18L5.4,68Z" style="fill:#ef7b51;fill-rule:evenodd"/><path d="M557.86,61.33h-.48l-.16-.32h-.16c-.11-.54-.22-1.07-.32-1.6h-.16v-.49h-.17v-.31h-.15c-.06-.33-.11-.65-.17-1h-.16v-.32h-.16c0-.21-.1-.42-.16-.64h-.16c-.21-.9-.42-1.81-.64-2.72h-.16v-.32h-.16v-.48h-.16c-.05-.21-.1-.43-.16-.64H554V52h-.16v-.32h-.16V51.4h-.16v-.32h-.16V50.6h-.16v-.32h-.16c0-.22-.1-.43-.16-.64h-.16v-.48h-.16c-.05-.22-.1-.43-.16-.64h-.16V48h-.16l-.32-1h-.16v-.32h-.16v-.32h-.16V46h-.16c0-.22-.11-.43-.16-.64l-.32-.17v-.31h-.16v-.49h-.16V44h-.16v-.48H550c0-.37-.11-.74-.16-1.12h-.16v-.32h-.16L549.05,40h-.16l-.64-2.88h-.16l-.48-2.08h-.16v-.48h-.16v-.48h-.16L547,33h-.16c-.06-.48-.11-1-.16-1.44h-.16V30.9h-.16v-.64h-.16v-.48H546V29.3h-.16V29h-.16v-.64h-.16v-.48h-.16v-.48h-.16c-.11-.59-.22-1.17-.32-1.76h-.16V25.3h-.16c-.06-.37-.11-.75-.16-1.12h-.16V23.7h-.16v-.8h-.16c-.06-.32-.11-.64-.16-1h-.16v-.32h-.16l-.33-1.76H543v-.48h-.17V18.9h-.16v-.81h-.16c-.1-.32-.21-.64-.32-1H542v-.48h-.16v-.32h-.16V16l-.32-.16V14.73h-.16v-.32H541v-.8h-.16v-.16H541v-.32h.16c.08-1,.31-.89,1-1.28v-.16h.32l.64-.8h.33l.16-.32h.32l.64-.8.64-.16V9.45c.26-.22.53-.43.8-.64V8.33c.26-.22.53-.43.8-.64.05-.27.1-.54.16-.8l.48-.32V6.25l.64-.49V5.44l.32-.32V4.8l.48-.32V4.16h.16v-.8h.16v-.8h-.16V1.92h-.16c-.2-.74-.67-.64-1.28-1V.8h-.32V.64L546.17.48V.32c-.6-.21-.85.08-1.28-.32h-3.53s-.62.92-.64,1v1l-.32.16V4.32h-.16V4.8h-.16V6.4h-.16v.49h-.16V9.13l-.32.16v1.28h-.16v.48h-.16v1.6l-.48.16c0,.11-.1.21-.16.32h-.32v.16l-1,.16v.16h-.32v.16h-.48v.16l-.64.16v.16l-.8.16v.16h-.48v.16H534v.16h-.48v.16H533v.16l-1.12.16v.16h-.32v.16l-.8.16V16h-.64v.16l-1,.16v.16h-.32v.16h-1v.16h-.32V17h-.32l-.16.32h-.8v.16h-.48v.16l-.64.16v.16h-.48v.16h-.48v.16h-.48v.16h-.48v.16l-1.44.16v.17l-.64.15v.16h-.32v.17c-.75.16-1.5.31-2.24.48V20h-.32v.16H518v.16l-1,.32v.16l-1.93.32v.16l-1.44.32v.16l-.64.16v.16h-.48v.16l-1.28.16v.16h-.48v.16h-.48v.16h-.48v.16h-.48v.16H509v.16h-.48v.16h-.32v.16l-1,.16V24l-.8.16v.16h-.32v.16h-.48v.16h-.32v.16l-2.25.48v.16h-.32v.16h-.48v.16h-.48v.16h-.48v.16h-.48v.16l-1.6.16-7,2.72h-1.12v.16l-.8.16v.16H490v.16h-.48v.16H489v.16h-.8v.16h-.64v.16h-.48v.16h-.32v.16l-1,.16v.16h-1.12v.16H484v.16h-.64v.16h-.32v.16l-1,.16V32h-.32v.17l-1,.15v.16h-.48v.17h-.48v.16h-.48V33l-1.92.33v.16l-.65.16v.16h-.48V34H476v.16h-.48v.16h-1v.16h-.32v.16h-.48v.16h-.32v.16l-1,.16v.16l-2.24.48v.16h-.48V36l-.64.16v.16l-1,.16v.16l-.64.16V37h-.48v.16h-.32v.16l-1.12.16v.16a3,3,0,0,1-1.28.16V38h-.16c.07.9.18.58.48,1.12v.32h.16c.05.21.1.43.16.64h.16v.48l.32.16V41h.16c.05.32.1.64.16,1H466c.05.22.1.43.16.64h.16v.48h.16v.8h.16c.1.32.21.64.32,1h.16v.31h.16v.48h.16v.49h.16v.32h.16v.48h.16v.32H468v.48h.16V48h.16v.48h.16c.05.21.11.42.16.64h.16v.48H469c.05.21.11.42.16.64h.16c.05.32.11.64.16,1h.16c.05.27.11.53.16.8H470v.32h.16c.05.27.11.53.16.8h.16v.32h.16v.64h.16v.48h.16v.64h.16c.05.32.11.64.16,1h.16v.32h.16v.64h.16v.48h.16v.64H472v.64h.16v.49h.16c0,.21.11.42.16.64h.16v.48h.16v.8H473v.48h.16v.64h.16c.06.42.11.85.16,1.28h.16v.64h.16v.48H474v.64h.16v.32h.16c.06.32.11.64.16,1h.16c.06.22.11.43.16.64h.16c.11.48.22,1,.32,1.44h.16v.32h.16c.06.32.11.64.16,1h.16v.48H476v.48h.16v.48h.16v.49h.16v.48h.16V73h.16l.33,1.92h.16v.48h.16v.48h.16v.8h.16c.05.37.1.75.16,1.12h.16v.48h.16c.05.43.1.85.16,1.28h.16l.16,1.44h.16c.05.27.1.54.16.8l.64.48v1.44h.16c.05.27.1.54.16.8l.48.17v.15h.32V85h.64v.17h2.72l.16-.33H485v-.15h.48v-.17l1.12-.16v-.16h.32v-.16h.48V83.9h.48v-.16h.48v-.16h.48v-.16l1-.16V83.1h.32v-.16l1-.16v-.16l1.6-.32v-.16l2.08-.16v-.16l1.92-.32v-.16h.48v-.16h.48V81l2.88-.48v-.16H501v-.16h.48v-.16h.64V79.9l2.41-.32v-.16H505v-.16l1.92-.32v-.16l1.12-.16v-.16h.48V78.3l1.44-.16V78h.48v-.16l.8-.16V77.5h.32v-.16l2.88-.64v-.16h.32v-.16h.48v-.16h.32v-.16l1-.16v-.16l1.29-.16v-.16h.32v-.16h.48V75.1l3.2-.64V74.3l1-.16V74h.32v-.16l2.08-.48v-.16h.8V73h.64v-.16h.64V72.7h.8v-.16h.8v-.16h.48v-.17h.33v-.15l1.76-.33v-.16h.48v-.15h.48v-.17l1.76-.32v-.16l.64-.16v-.16h.48v-.16h.64v-.16h.64V70h1.12v-.16h.48v-.16h.48v-.16l2.72-.64v-.16h.48v-.16h.48v-.16l1.13-.16v-.16h1.28v-.16h.32v-.16h1.12v-.16h.48v-.16h1v-.16l1-.16v-.16h.32v-.16h.8v-.16H550v-.16h.64v-.16h.48v-.16h1V66h.32v-.16h.64v-.16h.48v-.16h1v-.16l1-.32v-.16h.64l.17-.32h.32v-.16a1.08,1.08,0,0,1,.64-.32,1.21,1.21,0,0,1,.32-.64h.16c0-.27.1-.54.16-.8H558C558,62.18,558.11,61.52,557.86,61.33ZM541,9.61h.16V9.29h.16V7.37h.16V6.73h.16c.06-.7.11-1.39.16-2.09H542V2.4l.32-.16v-1h.16c.06-.16.11-.32.16-.48,1.22,0,3.09-.11,3.85.32v.16c.39.3.58.71,1,1v1.6l-.48.32v.32l-.32.16c-.11.32-.22.64-.32,1l-1,.79c-.06.27-.11.54-.16.81l-1,.8c-.06.21-.11.42-.16.64l-2.89,2.08v-.16H541Zm14.89,53.32-.32.16v.32h-.16c-.05.11-.1.21-.16.32H555c-.05.11-.1.21-.16.32l-.8.16v.16l-.64.16v.16h-1.12c0,.11-.1.21-.16.32h-.8v.16H551v.16h-1v.16h-.32v.16h-.64v.16h-.48V66h-.8v.16h-.32v.16l-.8.16v.16h-1.12v.16h-.48v.16h-1.12v.16h-.32v.16h-1.29v.16H542v.16h-.64v.16h-.48v.16l-1.12.16v.16h-.64v.16h-.48v.16h-.48v.16h-.48v.16h-.48V69h-.48v.16H535.6v.16H535v.16h-.64v.16l-1,.16V70l-.64.16v.16l-1.28.16v.16H531v.16h-.49v.16l-2.24.49v.15h-.32v.16h-.8v.17h-.8v.16h-.64v.15H525v.17h-.8v.16h-.48v.16h-.48v.16h-.48V73l-1.6.32v.16h-.32v.16L519,74v.16h-.64v.16h-.64v.16h-.48v.16h-.49v.16h-.32v.16h-.8v.16h-.48v.16h-.48v.16h-.48v.16h-.32v.16l-.8.16v.16l-1.92.32v.16h-.48v.16h-.32v.16h-.48V77h-.48v.16H509v.16h-.48v.16l-1.44.16v.16h-.48V78h-.48v.16l-1.44.16v.16h-.48v.16h-.48v.16l-3.05.48v.16h-.48v.16h-.48v.16l-1.28.16v.16l-2.08.32v.16h-.32v.16h-.64v.16l-1.92.32v.16h-1v.16h-.8v.16l-1.12.16V82h-.49v.16h-.64v.16h-.32v.16h-.48v.16h-.32v.16h-.48v.16l-1.44.32v.16h-.32v.16l-1,.16v.16h-.32v.16h-.64v.16h-.64v.16l-.8.16v.17c-.59,0-.86,0-1.12-.33h-.16V83.9h-.16v-.32h-.16V81.66H481v-.32a3.18,3.18,0,0,1-.32-.16v-.64h-.16v-.48h-.16c-.06-.48-.11-1-.16-1.44H480V78h-.16V77.5h-.16V77h-.16v-.64h-.16v-.64h-.16V75.1h-.16v-.64h-.16V74h-.16v-.64h-.16v-.48h-.16v-.65h-.16v-.48h-.16v-.48H478v-.48h-.16v-.32h-.16c-.11-.53-.22-1.06-.32-1.6h-.16v-.32H477c-.1-.48-.21-1-.32-1.44h-.16c-.05-.21-.1-.43-.16-.64h-.16c-.05-.32-.1-.64-.16-1h-.16v-.32h-.16v-.48h-.16v-.64h-.16c-.05-.43-.1-.85-.16-1.28h-.16v-.64h-.16v-.48h-.16V61h-.16v-.8h-.16v-.48h-.16c0-.22-.1-.43-.16-.64H474c-.05-.32-.1-.65-.16-1h-.16c-.05-.43-.1-.86-.16-1.29h-.16v-.48h-.16v-.48H473V55.4h-.16v-.48h-.16v-.48h-.16V53.8h-.16v-.48h-.16V53H472v-.48h-.16V52.2h-.16v-.48h-.16c-.05-.27-.11-.53-.16-.8h-.16V50.6h-.16v-.48h-.16l-.16-.64h-.16V49h-.16v-.32h-.16V48.2h-.16v-.32H470c-.05-.22-.11-.43-.16-.64h-.16c-.05-.32-.11-.64-.16-1h-.16c-.05-.21-.11-.42-.16-.64H469v-.48h-.16v-.31h-.16c-.11-.33-.21-.65-.32-1h-.16L468,42.59h-.16c-.06-.21-.11-.42-.16-.64h-.16v-.48h-.16c-.06-.27-.11-.53-.16-.8l-.32-.16v-.32a3.66,3.66,0,0,1-.64-1.28h-.16c-.21-.66.9-.65,1.28-.8V38l1-.16v-.16h.32v-.16h.48v-.16h.32v-.16H470V37h.32v-.16h.48v-.16h.32v-.16l1-.16v-.16l1.92-.32v-.16h.32v-.16l1-.16v-.16h.32v-.16l1.44-.16,2.41-1.12h.8v-.16h.64v-.16h.48v-.16H482v-.16h.32V33l1-.15v-.16h.32V32.5H484v-.16h.48v-.15H485V32h.48v-.16h1.28V31.7l1-.16v-.16H488v-.16l1-.16V30.9l1.45-.16v-.16l1-.16v-.16h.32V30.1h.48v-.16l1.44-.16v-.16h.48v-.16h.48V29.3h.48v-.16h.32V29l1-.16v-.16h.32V28.5l1-.16v-.16l.64-.16v-.16h.48V27.7h.64v-.16h.48v-.16h.48v-.16h.48v-.16h1V26.9h.48v-.16h.48v-.16h.64v-.16h.33v-.16h.48V26.1h.32v-.16H505v-.16h.8v-.16h.48v-.16h.48V25.3h.32v-.16h.48V25h.32v-.16l1-.16V24.5h.32v-.16h.48v-.16H510V24h.48v-.16h.32V23.7h.48v-.16h.48v-.16h.48v-.16l1.44-.16V22.9H514v-.16h.48v-.16l.64-.16v-.16l1-.16v-.16l2.41-.48V21.3l1-.32v-.16h.32v-.16h.48V20.5h.32v-.16l1.44-.16V20h.32v-.16l1-.32v-.16l1.6-.17v-.16h.32V18.9l1.44-.33v-.16l.64-.16v-.16h.8v-.16l1-.32v-.16l1.29-.16v-.16h.32V17h.48v-.16h.8v-.16l.64-.16v-.16H533v-.16h.48V16H534v-.16h.48v-.16H535v-.16h.48v-.16h.48v-.16h.48v-.16h.48v-.16l.64-.16v-.16h.32v-.16h.48v-.16l.8-.16v-.16c.32.1.14,0,.32.16.52.52.06,1,.32,1.76h.16v.32h.16c.22.64.43,1.28.64,1.92h.16v.32H541v.8h.16c.11.59.22,1.18.32,1.77h.16v.64h.16c.06.21.11.42.16.64h.16l.48,2.72h.16v.32H543c.21,1,.42,1.92.64,2.88h.16v.48h.16v.48h.16v.48h.16v.32h.16v.64h.16v.64h.16v.48h.16v.8h.16l.16,1.29h.16c0,.37.1.74.16,1.12h.16v.48h.16v.48H546v.64h.16v.32h.16v.64h.16c0,.43.1.85.16,1.28h.16v.64H547v.48h.16v.48h.16V41h.16c.1.48.21,1,.32,1.44h.16v.32h.16c0,.32.11.64.16,1h.16l.16,1.13h.16c0,.21.11.42.16.64l.32.15V46h.16v.48h.16v.32h.16v.48h.16v.32l.32.16c.05.21.11.42.16.64h.16v.48h.16c.05.26.11.53.16.8H551c0,.21.11.42.16.64h.16v.48h.16v.32h.16v.32h.16v.32h.16v.48h.16v.32h.16c.11.32.22.64.32,1h.16V54h.16v.32h.16c.06.37.11.75.16,1.12h.16v.48h.16v.64h.16v.64l.32.16v.48h.16c.06.27.11.54.16.81h.16v.31h.16v.49l.32.15v.65h.16v.64h.16c.28.73,0,1.15.64,1.6Zm-15.85-17.3v.16h-.64V46h-.64v.16h-1.44c-1.72.49-4,.64-5.6,1.28-.16-.42,0-.83-.16-1.28h-.16V45h-.16v-.8h-.16v-.8H531V42.11h-.16V41h-.16V39.55h-.17v-1h-.15V36.83h-.16V35.55l-.33-.16v-.8l-1.28-.32v.16h-.16c.06,1.44.11,2.88.16,4.32h.16v.48h.16v1.44a7.68,7.68,0,0,0,.32,1.44v1.44A23.92,23.92,0,0,1,530,48a5.71,5.71,0,0,0,2.08.48v-.16h.32V48.2h.48V48h.48v-.16h.8v-.16h.48v-.16h1.12V47.4l1.6-.16v-.16h.8v-.16h1.44v-.16l1.76-.16v-.16h.16V46h-.16A1.61,1.61,0,0,0,540.08,45.63Zm-12.49,1.61h-.32v.16c-.69.35-1.67.48-2.08,1.12h-.32a.62.62,0,0,0-.32-.32,4.21,4.21,0,0,0-.32-1.44V45.63h-.16V45h.16a7.06,7.06,0,0,1,2.4-.8v-.32c-.58-.12-1.56-.38-1.92.16h-.64v-.16h-.16v-.64h-.16v-.64h-.16c-.05-.37-.11-.75-.16-1.12h-.16v-1h.16a4.16,4.16,0,0,1,1.76-.48h1.28v-.16h.16a6.38,6.38,0,0,0-3.2-.32.4.4,0,0,1-.48.16l-.16-.32-.8-.16v-.16c-.52.06-.47.14-.8.32,0,.21.11.43.16.64h.16v1.12h.16v.48h.16v.8H522v.32h.16v2.09h.16v.48h.16V46.6h.16v.48h.16v1H523v.32h.16v1.12a1.32,1.32,0,0,1,.32.32h1.12l.32-.48h.48v-.16h.32V49H526v-.16h.32v-.16h.32v-.16H527v-.16h.32l.32-.32h.32c.06-.11.11-.22.16-.32l.48-.16v-.32l-1-.16Zm-11.21,4-1.28-1.12V49.8l-.48-.32v-.32L514.3,49c0-.27-.1-.54-.16-.8-.42-.38-.85-.75-1.28-1.12l-.16-.64c-.21-.17-.43-.32-.64-.48v-.33l-.32-.15v-.33l-.48-.31v-.33c-.23-.39-.52-.55-.64-1.12-.58-.07-2.64-.67-3-.32l-.48.16v5a4.41,4.41,0,0,1-.32,2.24,10.57,10.57,0,0,1-.16,3,2.82,2.82,0,0,1-1.12-.16v-.16h-.8V53l-1.12-.16v-.16h-.33v-.16h-.64v-.16h-.48V52.2h-.64V52c-.6-.19-.86.08-1.28-.32h-.16v-.16c1.2-.55,3.16-3.14,3.2-4.8a5.07,5.07,0,0,1-1.28-.32h-3.52v.16l-1,.32v.16h-.8v-.16c-.37-.08-.43.08-.64.16a5.82,5.82,0,0,0-.16,2.4h.16V50h.16v1.28h.16v.32h.16v1h.16V53h.16v.64H497v.64h.16v.48h.16v.48h.16v.48h.16c.05.22.11.43.16.64H498v.48h.16v.32l.32.16v.48h.16a3.72,3.72,0,0,0,1.6.48v-.15h.16c-.05-.33-.1-.65-.16-1l-.32-.16-.48-1.44h-.16v-.48h-.16V54.6h-.16v-.48l-.48-1.28a9.3,9.3,0,0,1,3.2-.16v.16h.48V53h.32v.16l1,.16v.16h.65c.27.1,1.63.66,2.08.48l.16-.32h.32a5.46,5.46,0,0,1,0,2.56,2,2,0,0,0,.32,1.28,4.77,4.77,0,0,0,1.6,0c0-2.43,0-5.18.16-7.36l1-.32v-.16h1v-.16l1.6-.32V49c.72.19.73.78,1.28,1.12v.32h.32c.06.16.11.32.16.48l.8.64v.32c.6.17,1.45,1.17,1.92,1.6.06.11.11.22.17.32l1.44.32V54h.16v-.64l-2.09-1.76Zm-17-.64h-.16l-.16.32c-.31.24-.16-.16-.48.32h-.48v-.16H498c-.24-.41.14-.95-.32-1.44,0-.7-.12-1.67.32-1.92h.64v-.16c.36-.18.36,0,.64-.32h1.92v.16h.16c0,.36,0,.42-.16.64H501v.32h-.16v.32h-.16v.48l-1.28,1.12Zm12.33-2.4v.16l-.8.16v.16h-.64v.16h-.64V49l-.64.16a14.47,14.47,0,0,1-.16-3.84c-.05-.38-.11-.75-.16-1.13l.16-.16c.74.44.82,1.1,1.28,1.76l.32.17c.05.16.11.31.16.48l.48.32c.3.42.37.83.8,1.12C511.81,48.2,511.92,48,511.74,48.2Zm9-5.13c-.69,0-.54.1-1,.32-.2,1.11-.18,3.36-.8,4v.16h-.16V47.4c-.5-.34-.07-.23-.32-.64l-.48-.32v-.32l-.32-.16v-.33c-.38-.31-.75-.64-1.13-1v-.32l-1.12-.16V44a1.86,1.86,0,0,0-.64.16,1.16,1.16,0,0,0,.32.8h.16v.33l.32.16v.15l.32.16v.33l.32.15v.33l.48.32c.06.32.11.64.17,1l.32.16c0,.21.1.42.16.64l.32.16.32.64,1.28.48a2.69,2.69,0,0,0,1-.16,45.11,45.11,0,0,0,1.12-4.48,2.66,2.66,0,0,0-.16-1.61C521,43.16,521,43.42,520.71,43.07ZM493,45.32h-.48v.16h-.8v.15h-.64v.16h-.64V46H490v.16h-.32v.15h-.48v.17l-2.08.16v.16h-.48v.16h-.48v.16L484,47.4v.16h-.48v.16h-.48v.16h-.48V48h-.48v.16l-1,.16v.16h-.32v.16h-.48v.16H480V49h-.48v.16h-.32v.16h-.48v.16h-.48v.16h-.8v.16H477V50h-.8a1.14,1.14,0,0,1-.32.32l.16.32,1.45.32v-.16h.32V50.6l1.92-.32v-.16h.48V50h.32V49.8H481v-.16h.32v-.16h.48v-.16h.48v-.16h.32V49h.48v-.16l1-.16v-.16c.85.11.5.21.8.8H485v.48h.16v.32h.16v1h.16v.32h.16v.8h.16v.64H486c.06.53.11,1.07.16,1.6h.16v.48h.16v.32h.16v1.12h.16c.06.32.11.64.16,1h.16v.32h.16c.11.32.22.64.32,1h.16c.11.53.22,1.06.32,1.6h.16c.06.21.11.42.16.64h.16l.16.64.32.16V62a3.18,3.18,0,0,1,.32.16l.16.8.64.48v.48l.33.16v1c.35.06.3.16.32.16h.8v.16c.38-.1.35-.17.64-.32a3,3,0,0,0-.32-1.6l-.48-.32v-.32l-.32-.32v-.32h-.16v-.32l-.48-.32v-.32h-.16l-.33-1h-.16l-.32-1.6h-.16l-.16-.65H489v-.32h-.16c0-.26-.1-.53-.16-.8h-.16c0-.48-.1-1-.16-1.44h-.16v-.48H488v-.48h-.16V54h-.16v-.64h-.16v-1h-.16v-.48h-.16v-.64h-.16v-.8h-.16V50h-.16v-.48h-.16c-.05-.21-.1-.43-.16-.64l-.48-.16-.32-.48.48-.16v-.16h.8v-.16h.64v-.16H488V47.4h.48v-.16H490v-.16h.65v-.16h.32v-.16l1.12-.16v-.16h.48v-.17h1v-.15H494V46h1v-.17h.16c.1-.31,0-.13.16-.31v-.16L493,45.15Z" style="fill:#ef7b51;fill-rule:evenodd"/></g></g></svg>