<svg xmlns="http://www.w3.org/2000/svg" viewBox="0 0 572.99 60.46"><g id="レイヤー_2" data-name="レイヤー 2"><g id="テキスト"><path d="M91.81,40l-1.53,2.35a53.62,53.62,0,0,0-4.79-3L87,37C88.43,37.76,90.74,39.21,91.81,40Zm1.7,4.81a21.48,21.48,0,0,0,8.17-7.88l1.62,2.86a25.38,25.38,0,0,1-8.36,7.53,25.71,25.71,0,0,1-7,2.61l-1.58-2.77A23.59,23.59,0,0,0,93.51,44.78ZM95,35.22l-1.57,2.33c-1.18-.82-3.36-2.24-4.75-3l1.54-2.31C91.64,33,94,34.47,95,35.22Z" style="fill:#ef7b51"/><path d="M121.15,46.79c.58,0,1.17-.08,1.59-.12v2.75a10,10,0,0,0-1.59-.11H109.56a11.65,11.65,0,0,0-1.73.11V46.67a17.15,17.15,0,0,0,1.73.12h4.28V40h-3.28c-.44,0-1.19,0-1.65.09V37.47a11.42,11.42,0,0,0,1.65.1h9.62a15.19,15.19,0,0,0,1.64-.1v2.65c-.53,0-1.18-.09-1.64-.09h-3.59v6.76Z" style="fill:#ef7b51"/><path d="M145.82,34.63a11.22,11.22,0,0,0-.82,1.1,21.27,21.27,0,0,1-5.06,5.75l-2.16-1.74a12.41,12.41,0,0,0,3.86-3.91H130.7c-.88,0-1.57.06-2.56.15V33.06a16.18,16.18,0,0,0,2.56.21H142a10.17,10.17,0,0,0,2.12-.19Zm-8.57,2.84c0,5.21-.1,9.49-5.83,12.56L129,48a8.55,8.55,0,0,0,2.21-1.15c2.66-1.85,3.17-4.08,3.17-7.52a12.23,12.23,0,0,0-.15-1.89Z" style="fill:#ef7b51"/><path d="M155.78,39.59c-.11,6.78-.21,9.28-.74,10.06a2,2,0,0,1-1.36.88,13.87,13.87,0,0,1-2.17.08,6,6,0,0,0-.6-2.22c.65.06,1.19.08,1.53.08a.6.6,0,0,0,.59-.31c.27-.45.39-2.23.48-7.27H152c-.09,3.19-.61,6.8-2.92,9.85a10,10,0,0,0-1.85-1.53c2.31-3.05,2.6-6.62,2.6-9.41V36.57h-2.14V34.26h3.15V31.07h2.4v3.19h3.1v1.59a14.58,14.58,0,0,0,2-4.78l2.45.46a19.36,19.36,0,0,1-.61,2.06h6.53v2.26h-7.47A13.61,13.61,0,0,1,157.06,39a14.6,14.6,0,0,0-2-1.59,9,9,0,0,0,.78-.84H152v2h3.76Zm11.5,1.74A32.86,32.86,0,0,1,164.05,44a8.68,8.68,0,0,0,3.32,4.51,8.51,8.51,0,0,0-1.7,2.1c-2.78-2-4.06-5.67-4.81-10.18l-.74.31v9.91h-2.37v-9l-.44.12a11.94,11.94,0,0,0-1.47-2.08,24,24,0,0,0,8.59-3.57l1.78,1.3a19.26,19.26,0,0,1-3.32,2.1c.13.82.3,1.64.49,2.42a19.69,19.69,0,0,0,2.14-2.16Z" style="fill:#ef7b51"/><path d="M178.27,38.18a2.69,2.69,0,1,1-2.69,2.69A2.7,2.7,0,0,1,178.27,38.18Z" style="fill:#ef7b51"/><path d="M204.43,40.45a15.6,15.6,0,0,1-3.21,4.91,18.26,18.26,0,0,0,7.89,2.94,11.2,11.2,0,0,0-1.61,2.38,18.2,18.2,0,0,1-8.28-3.55A22.89,22.89,0,0,1,191,50.72a13.82,13.82,0,0,0-1.58-2.35,20.81,20.81,0,0,0,7.92-3,17.87,17.87,0,0,1-2.9-4.83l2.39-.71a12.47,12.47,0,0,0,2.42,3.88,11.39,11.39,0,0,0,2.45-4Zm-6.82-3.36a23.53,23.53,0,0,1-5.8,5.15,19.38,19.38,0,0,0-2.1-1.94A16,16,0,0,0,195,36.08Zm5.65-1.17H190V33.48h7.93V31h2.57v2.44h8v2.44h-5.17a34.1,34.1,0,0,1,5.44,4.4l-2.23,1.73a32,32,0,0,0-5.33-4.69Z" style="fill:#ef7b51"/><path d="M214.2,40.89a16.31,16.31,0,0,0-3.78-2.2l1.32-1.87a14.77,14.77,0,0,1,3.89,2Zm2.46,2.79c-1,2.23-2.29,4.64-3.47,6.7L211,48.83a67.45,67.45,0,0,0,3.76-6.7Zm-1.33-8.39A14.27,14.27,0,0,0,211.62,33L213,31.15a16.58,16.58,0,0,1,3.8,2.08Zm3,5.9h2.25v2c0,2.33-.36,5.27-3.17,7.39A7.66,7.66,0,0,0,215.61,49a6.53,6.53,0,0,0,2.68-5.83Zm3.47-7.6v-2.5h2.54v2.5h5.58v2.22h-6.8c-.44.82-.9,1.64-1.32,2.37,1.26,0,2.62-.06,4-.12-.36-.38-.72-.78-1-1.12l1.93-1a20.27,20.27,0,0,1,3.61,4.4l-2.1,1.14a7.49,7.49,0,0,0-.78-1.34c-3.67.23-7.51.39-10.29.52l-.25-2.33,2.4,0c.35-.76.75-1.64,1.05-2.46h-3.57V33.59Zm0,7.79h2.18v8.39h-2.18Zm6.38,7a.34.34,0,0,0,.27-.09c.09,0,.13-.21.17-.54s0-1,.06-2a5.72,5.72,0,0,0,1.68.93,14.12,14.12,0,0,1-.25,2.45,1.51,1.51,0,0,1-.69,1,2.51,2.51,0,0,1-1.16.27h-1.07a2.08,2.08,0,0,1-1.42-.52c-.34-.34-.49-.8-.49-2.21V41.19h2.29v6.5a1.9,1.9,0,0,0,0,.59.3.3,0,0,0,.23.11Z" style="fill:#ef7b51"/><path d="M239.78,39.59c-.11,6.78-.21,9.28-.74,10.06a2,2,0,0,1-1.36.88,13.87,13.87,0,0,1-2.17.08,6,6,0,0,0-.6-2.22c.65.06,1.19.08,1.53.08a.6.6,0,0,0,.59-.31c.27-.45.39-2.23.48-7.27H236c-.09,3.19-.61,6.8-2.92,9.85a10,10,0,0,0-1.85-1.53c2.31-3.05,2.6-6.62,2.6-9.41V36.57h-2.14V34.26h3.15V31.07h2.4v3.19h3.1v1.59a14.58,14.58,0,0,0,2-4.78l2.45.46a19.36,19.36,0,0,1-.61,2.06h6.53v2.26h-7.47A13.61,13.61,0,0,1,241.06,39a14.6,14.6,0,0,0-2-1.59,9,9,0,0,0,.78-.84H236v2h3.76Zm11.5,1.74A32.86,32.86,0,0,1,248.05,44a8.68,8.68,0,0,0,3.32,4.51,8.51,8.51,0,0,0-1.7,2.1c-2.78-2-4.06-5.67-4.81-10.18l-.74.31v9.91h-2.37v-9l-.44.12a11.94,11.94,0,0,0-1.47-2.08,24,24,0,0,0,8.59-3.57l1.78,1.3a19.26,19.26,0,0,1-3.32,2.1c.13.82.3,1.64.49,2.42a19.69,19.69,0,0,0,2.14-2.16Z" style="fill:#ef7b51"/><path d="M265.69,40.87a13.85,13.85,0,0,1,4.14-10.08l2,.88a13.14,13.14,0,0,0,0,18.4l-2,.88A13.85,13.85,0,0,1,265.69,40.87Z" style="fill:#ef7b51"/><path d="M281.46,45.51l-7.62,2.23-.63-2.36c.84-.18,1.87-.46,3-.75V40.41h-2.33V38.12h2.33V34.47h-2.52V32.16H281v2.31h-2.41v3.65h2.18v2.29h-2.18V44l2.5-.69Zm9.32,2.92c.38,0,.47-.34.51-2.44a6.43,6.43,0,0,0,2.08.93c-.21,2.87-.76,3.65-2.31,3.65h-1.58c-1.93,0-2.35-.71-2.35-2.83V43.62h-1.28c-.38,3.42-1.34,5.86-5.82,7.18a7.52,7.52,0,0,0-1.38-2.06c3.8-.94,4.47-2.66,4.74-5.12h-1.53V31.86h10.25V43.62h-2.59v4.12c0,.61.05.69.4.69ZM284.19,35.2h5.48V33.9h-5.48Zm0,3.19h5.48v-1.3h-5.48Zm0,3.19h5.48v-1.3h-5.48Z" style="fill:#ef7b51"/><path d="M299.31,43.22c.65-.27,1.3-.54,1.93-.82l.57,2.21c-2.22,1.11-4.62,2.22-6.55,3.13l-1-2.52c.76-.28,1.68-.63,2.73-1v-5.9h-2.45V35.89H297V31.34h2.33v4.55h2.12v2.38h-2.12Zm11.21,4.83c1.16,0,1.37-.48,1.56-2.62a6.52,6.52,0,0,0,2.18.9c-.33,2.94-1.07,4-3.53,4h-4.47c-2.83,0-3.65-.78-3.65-3.68V41.21l-1.14.48-.92-2.23,2.06-.86V33.08H305v4.49l1.74-.73V31h2.34v4.79l1.65-.71.45-.3.44-.29,1.74.61-.08.42c0,4,0,6.51-.15,7.37a1.8,1.8,0,0,1-1.07,1.74,6,6,0,0,1-2.19.29,6.82,6.82,0,0,0-.52-2.09,10,10,0,0,0,1,0c.25,0,.37-.09.46-.46s.06-1.87.06-4.85l-1.8.79V45.8h-2.34V39.4l-1.74.76v6.46c0,1.24.19,1.43,1.47,1.43Z" style="fill:#ef7b51"/><path d="M329.07,40.51v2.38h4.47v2.28h-4.47v2.27c0,.76.08.88.67.88h1.62c.54,0,.65-.42.73-2.39a6.28,6.28,0,0,0,2.25,1c-.25,2.77-.9,3.61-2.75,3.61H329.3c-2.27,0-2.84-.74-2.84-3.07V45.17h-2.77c-.46,2.21-1.84,4.29-5.73,5.59a9.34,9.34,0,0,0-1.59-2c2.89-.89,4.15-2.19,4.68-3.6h-4.16V42.89h4.49V40.51h-1.76v-.69a17.24,17.24,0,0,1-2.79,1.66,11,11,0,0,0-1.51-1.89,13.06,13.06,0,0,0,3.48-2.16,23.58,23.58,0,0,0-2.08-1.79l1.58-1.3c.63.44,1.42,1,2,1.55A10.33,10.33,0,0,0,321.63,34h-4.28V31.86h5.48l.44-.08,1.68.78a14.34,14.34,0,0,1-3.42,5.58h7.6a19.12,19.12,0,0,1-3.82-6.42l2.25-.63a14.28,14.28,0,0,0,1.05,2.24,19.44,19.44,0,0,0,1.86-1.95l1.89,1.34c-.86.78-1.82,1.6-2.68,2.23a13.57,13.57,0,0,0,.94,1.09A19.68,19.68,0,0,0,333,33.77l1.83,1.31c-.86.77-1.87,1.61-2.77,2.26a12.69,12.69,0,0,0,3.25,1.91,9.79,9.79,0,0,0-1.72,2.17A14.73,14.73,0,0,1,331,39.84v.67Zm-2.61,0h-2.58v2.38h2.58Z" style="fill:#ef7b51"/><path d="M343.73,40.6c-.11.29-.21.56-.34.84h10.33v9.19h-2.6V50h-7.33v.6h-2.5V45.07a15.92,15.92,0,0,1-3.19,3.21,14.36,14.36,0,0,0-1.87-1.87A12.78,12.78,0,0,0,341,40.6h-4v-2h8v-.9h-6v-1.8h6v-.89h-7V33.12h3.51a9.28,9.28,0,0,0-.9-1.4l2.2-.7a7.52,7.52,0,0,1,1.35,2.06l-.11,0h4.62l-.15,0A11.43,11.43,0,0,0,349.56,31l2.73.65c-.42.55-.82,1-1.17,1.45h3.57v1.93h-7.18v.89h6.09v1.8h-6.09v.9h8v2Zm.06,2.6V44h7.33V43.2Zm7.33,2.14h-7.33v.76h7.33Zm0,2.92v-.78h-7.33v.78Z" style="fill:#ef7b51"/><path d="M363.3,39.67l-2.71,1a54.11,54.11,0,0,0-2.41-5.94l2.68-.93C361.51,35.12,362.82,38.25,363.3,39.67Zm13-5.5a14.09,14.09,0,0,0-.53,1.64,24.11,24.11,0,0,1-3.53,7.9A19.1,19.1,0,0,1,364,49.86l-2.35-2.35a16.82,16.82,0,0,0,8.29-5.42,19.25,19.25,0,0,0,3.24-8.82Zm-7.37,3.95-2.65.92a54.92,54.92,0,0,0-2.18-5.69l2.62-.86A50.47,50.47,0,0,1,368.91,38.12Z" style="fill:#ef7b51"/><path d="M397.82,34.63a11.22,11.22,0,0,0-.82,1.1,21.1,21.1,0,0,1-5.06,5.75l-2.16-1.74a12.41,12.41,0,0,0,3.86-3.91H382.7c-.88,0-1.57.06-2.56.15V33.06a16.18,16.18,0,0,0,2.56.21H394a10.17,10.17,0,0,0,2.12-.19Zm-8.57,2.84c0,5.21-.1,9.49-5.83,12.56L381,48a8.55,8.55,0,0,0,2.21-1.15c2.66-1.85,3.17-4.08,3.17-7.52a12.23,12.23,0,0,0-.15-1.89Z" style="fill:#ef7b51"/><path d="M400.7,39.13c.76.06,2.29.12,3.38.12h11.28c1,0,1.91-.08,2.45-.12v3.29c-.5,0-1.57-.1-2.45-.1H404.08c-1.2,0-2.6,0-3.38.1Z" style="fill:#ef7b51"/><path d="M426.85,40.87A13.85,13.85,0,0,1,422.71,51l-2-.88a13.14,13.14,0,0,0,0-18.4l2-.88A13.85,13.85,0,0,1,426.85,40.87Z" style="fill:#ef7b51"/><path d="M444.32,43.71a19.32,19.32,0,0,1-1.26,5.41,12.94,12.94,0,0,0-1.91-.9,15.32,15.32,0,0,0,1.11-4.87ZM448,37.85a17.68,17.68,0,0,1,1.85,4.45l-1.76.8c-.07-.32-.15-.68-.27-1.07l-1.08.08V50.7h-2.16V42.26l-3,.19-.21-2.17,1.51-.06c.31-.4.65-.86,1-1.34A20.38,20.38,0,0,0,441.38,36l1.19-1.7.49.42a26.57,26.57,0,0,0,1.53-3.65l2.16.79c-.75,1.43-1.59,3.07-2.35,4.22.25.3.51.57.72.84a37.15,37.15,0,0,0,1.86-3.4l2,1c-1.15,1.82-2.6,3.95-3.93,5.65l2-.09c-.23-.52-.48-1-.74-1.51Zm.55,5.33a22.67,22.67,0,0,1,1.3,3.78l-1.85.67a23.82,23.82,0,0,0-1.21-3.9Zm12-11.13s0,.61,0,.91c-.13,4.36-.27,6.17-.8,6.82a2.16,2.16,0,0,1-1.55.82,19.57,19.57,0,0,1-2.56.06,5.43,5.43,0,0,0-.72-2.31,21,21,0,0,0,2.12.09.84.84,0,0,0,.67-.22c.26-.31.38-1.36.49-3.88h-3.07c-.42,2.92-1.45,5.33-4.68,6.87A6.4,6.4,0,0,0,449,39.34a5.79,5.79,0,0,0,3.7-5h-2.84V32.05Zm-10,9.72h9.57v8.78h-2.41v-.8h-4.88v.88H450.6ZM452.88,44v3.57h4.88V44Z" style="fill:#ef7b51"/><path d="M463.85,41a9.11,9.11,0,0,0-1.53-2.06,20.15,20.15,0,0,0,8.41-7.9h2.67a18.82,18.82,0,0,0,8.9,7.6,13.06,13.06,0,0,0-1.63,2.29,23,23,0,0,1-8.49-7.35A22.47,22.47,0,0,1,463.85,41Zm6-2.17v2.61c0,3-.44,6.67-4.53,9.26a9.56,9.56,0,0,0-2.08-1.79c3.67-2.18,4-5.14,4-7.54V38.81Zm7.25-.1V50.65h-2.61V38.71Z" style="fill:#ef7b51"/><path d="M0,47.48.18,48l1.66.59.27.35c.33.18.72.08,1.09.21l.26.34.35.18.26-.09.22.21.26-.09.93.56.26-.09L6,50.4l.26-.09.22.21L7,50.34l.22.22h.43l0,.13.39-.14.92.56.35-.26,0,.13a7.51,7.51,0,0,1,.75.91l-.13,0c-.1.27-.2.33-.56.49l.09.26c-.34.44-.17.89-.73,1.27l.09.26c-.13.2-.11.44-.21.66a10.39,10.39,0,0,0-1,1.92l.09.26-.13.05.27.78h.44c.78.39,3.26-.58,3.95-1.21l0-.14.48-.3,0-.13L13,56c0-.11,0-.21,0-.31l.26-.09c0-.1,0-.2.05-.31l.26-.08.21-.66.26-.09,0-.13.34-.27,0-.3.26-.09.22-.66.26-.09c0-.1,0-.2,0-.3l.34-.27,0-.13.26-.09c0-.16.09-.32.13-.48s.32-.2.47-.31,0-.2,0-.3l.27-.09,0-.13.61-.36c0-.16.08-.32.13-.48l2.73-.94,0-.13.39-.13,0-.13,5.48-1.88-.05-.13.52-.18,0-.13,1.3-.45a13.46,13.46,0,0,1,3.44-1c0,.29,0,.58,0,.87l-.22.22.13.39-.21.22c0,.29,0,.58,0,.87l-.22.22c0,.88,0,1.75,0,2.62l-.13,0,.09.27-.13,0,.09.26-.22.22c0,.19,0,.38.05.57l-.13,0c0,.28.09.55.14.83-.07.07-.14.15-.22.22,0,.23.07.47.1.7l-.13,0,.09.26-.13.05.09.26a1.72,1.72,0,0,0,0,1.31,1.69,1.69,0,0,0,.56-.05c.34-.64,1.09-.43,1.74-.89l0-.13.52-.18,0-.13,1.31-.45,0-.13.52-.18,0-.13.78-.26,0-.14.39-.13,0-.13,1.83-.63,0-.13.52-.18,0-.13.39-.13c.28-.27.22-.69.39-1l.34-.26,0-.13.26-.09c.19-.45.37-.91.56-1.36l.26-.09.12-.48.26-.09,0-.13.35-.26a2.91,2.91,0,0,1,0-.31l.26-.09.81-1.88.52-.62c0-.14,0-.29,0-.43l.48-.31,0-.31.26-.09,0-.13.39-.13-.05-.13.22-.22-.09-.26.22-.22,0-.13L44,42l0-.13.26-.09c.13-.34.26-.67.38-1l.26-.09c.05-.16.09-.32.13-.48l.26-.09c0-.16.09-.32.13-.48l.13,0c.05-.27.11-.53.17-.79l.65-.23c.53-.93,2.82-1,4-1.64l.13,0,0-.13.52-.18,0-.13,1.82-.62,0-.13,1.91-.81,3.78-1.29,0-.13.52-.18-.05-.13,1.57-.54c1.06-.77,2.52-1.47,3.6-2.26l1.87-.93,0-.13.39-.13,0-.13.39-.14,0-.13.39-.13-.05-.13.74-.4,0-.13.47-.31,0-.13.26-.09c0-.1,0-.21,0-.31.17-.2.34-.41.52-.61-.11-.45-.21-.9-.32-1.35l-.13,0c-.15-.29-.3-.58-.44-.87l-2.06-.89-.83.13,0-.13-.57.05,0-.13-.39.14,0-.13-.39.13,0-.13-.39.13,0-.13-.66.23,0-.13-.26.09,0-.13-17,5.81,0,.13-.52.18,0,.13-1.82.63a3.77,3.77,0,0,1-1.22.71c-.33-.25-.56-.14-1-.25-.07-.08-.15-.15-.22-.22l-.83-.3L39.49,30l-.35-.17-.26.09-.4-.3-.26.09-1-.69-.26.09-.35-.18-.27.09,0-.13-.26.09,0-.13-.27.09,0-.13h-.44l-.22-.22-.26.09-.22-.22-.26.09-.39-.3-.26.09a2.28,2.28,0,0,1-.22-.22l-.27.09-.74-.47H32l-.22-.21h-.87c-.07-.08-.15-.15-.22-.22l-.57.05-.22-.22-.56.05L29.13,27l-.57.05-.22-.21-.26.09-.92-.56-.26.09-.4-.31-.26.09-1.09-.64-.26.09-.75-.48-1,.06L22,24.61l-1,.06-.57-.39-.26.09-.05-.13-.26.09,0-.13-.39.13a2.28,2.28,0,0,1-.22-.22L19,24.2l-.4-.3-.7.1-.22-.22-.26.09,0-.13-.26.09-.05-.13-.39.13,0-.13-.4.14-.57-.39-.26.09-.35-.17-.26.09,0-.13-.26.08-.05-.13-.26.09,0-.13-.27.09-.21-.21-.27.09a2.28,2.28,0,0,0-.22-.22l-.26.09-.39-.3-.26.09,0-.13-1.82.62-.05-.13-.39.14,0-.13L4.3,25.16l0,.13-.52.18,0,.13-.78.27,0,.13-.61.35.18.53c.5.1.53.26.92.55l.3.05.09.26,1.71.72.31.48,1.18.47,1.1.64.48.13.31.48,1.53.64.09.26.31,0,.08.26,1,.38.31.48,1.18.47.09.26.31,0,.09.26,1,.39.09.26.31,0,.09.26,1,.38.09.26.31,0,.09.26.83.3.09.26.48.12.09.26.13,0,.4.3.65.21.09.26.13,0,.09.26.13,0,.22.21,1.18.47.14.39.3,0,.09.26.13,0,.09.26.48.13.05.13.48.12.31.48.65.21-.08.18,0,.13-1,.36.05.13-.66.22.05.13-.79.27.05.13-.52.18,0,.13-.65.22,0,.13-.86.45L20,43l-.39.13,0,.13-.86.45,0,.13L18.2,44l0,.13-.39.14,0,.13-.79.26c-.14.11-1.05.9-1.3.89l-.39-.3-1.4.18,0-.13-.57,0,0-.13H12.06l0-.13-.26.09,0-.13-.78.27,0-.13-.26.09-.39-.3-.92.31,0-.13-.7.09,0-.13-.26.09,0-.13-.65.23-.05-.14-.26.09,0-.13-.7.1,0-.13-.79.26,0-.13-.39.14,0-.13-.52.18-.22-.22L2.12,46l0,.13-.39.13,0,.13L1,46.69l0,.13c-.3.25-.78.32-.95.62ZM42.26,32.55a7.25,7.25,0,0,0,1.84.68l0,.13-.13,0c-.33,1.21-1.54.73-2.56,1.46l0,.13-.52.18,0,.13-1.57.53,0,.13-.39.14,0,.13-1.56.54,0,.13-.39.13,0,.13-2.22.76,0,.13-.39.14.05.13-1.31.45,0,.13-.4.13,0,.13-1.3.45,0,.13-.52.18,0,.13-3.13,1.07a7.85,7.85,0,0,0-2.1-1.46l-.84-.3-.09-.26-.3,0-.09-.26-1-.39c-.1-.16-.2-.32-.31-.48l-.3,0-.14-.39-.83-.29,0-.13L21.76,37l-.09-.26-.13,0-.09-.26L20.27,36l-.09-.26-.31,0c-.09-.12-.18-.23-.26-.35l-1-.38-.09-.26-.31,0-.09-.26-.83-.3-.09-.26-.3,0-.27-.35-1-.38-.09-.26-.48-.13L15,32.44l-1-.39-.09-.26-.3,0-.09-.26-1-.38-.09-.26-.3,0L12,30.55l-1.54-.65-.31-.47-.83-.3-.22-.22L8.82,29l-.35-.17-.09-.26-.3,0a3,3,0,0,1-1.36-1l-.27.09c-.63-.57-1.59-.7-2.1-1.47l-.13.05,0-.13.13,0c.21-.37,2.09-.86,2.7-1.07l2.61-.89,0,.13.26-.09.05.13,1.56-.54.05.13.26-.09.39.31.27-.09.22.21.26-.09.22.22h1.3l.4.3.26-.09.22.22.52-.18,0,.13.56-.05.05.13.26-.09.22.21.7-.09.39.3h.44l0,.13.7-.09.57.38.26-.08.22.21.52-.18.75.48.26-.09.39.3.26-.09,0,.13L23,26l.57.39.26-.09.92.56h.44l.22.21.26-.09,1.1.65.26-.09.22.22h.43l.05.13.56-.05.22.22h.88l0,.13h.44l.22.21.56,0,.22.21.26-.09.57.39.26-.09.4.3.26-.09.4.3.56,0,.4.3.56-.05.4.3.26-.09,0,.13.26-.09.35.17.26-.08.61.51.26-.09.4.31.26-.09,1.67,1,.26-.09.22.21.26-.08,1.09.64.26-.09.22.22.27-.09Zm-10,15.39-.18-.52c.1-.13.21-.26.3-.39l-.13-.39.13,0-.09-.26.13,0L32.3,46l.13,0c.08-.48,0-1.85.29-2.14l5.74-2C38.93,41,41.07,41,42,40.36l0-.13c.24-.14.49-.27.74-.4a4.34,4.34,0,0,1,1.61-.41l0,.13-.13.05c-.13.33-.26.67-.38,1l-.48.31c-.13.34-.26.67-.38,1l-.26.09c0,.1,0,.2-.05.3l-.34.27-.3.83-.69.53c0,.1,0,.2,0,.3l-.27.09,0,.31-.38.57,0,.13-.26.09,0,.13a1.49,1.49,0,0,1-.51.62l.09.26c-.19.3-.38.61-.56.92l0,.13c-.16.1-.32.2-.47.31s-.09.32-.13.48l-.48.31-.3.83-.26.09-.3.83-.26.09,0,.13-.3.39c0,.11,0,.21,0,.31l-1.18.4c-.27.5-.84.38-1.34.76l0,.13-.39.13,0,.13-1.17.4,0,.13-1.25.58-.27-.34.22-.22-.18-.53.13,0-.09-.26.21-.22-.09-.26.14,0-.18-.52.21-.22-.13-.39.21-.22-.08-.26.13,0L32,50.08l.13,0-.14-.39.22-.22-.23-.65.14-.05L32,48.47l.13,0L32,48.16ZM15.51,50.62l.22.22-.13,0,0,.13-.13.05C15.21,50.89,15.38,50.84,15.51,50.62Zm-1.27-.29L14,50.11l-.91.31,0-.13-.39.14,0-.13c-.54,0-1.07.53-1.48.36l-.13,0-.18-.52L12.05,49l.74-.4,0-.13.26-.09c0-.1,0-.21.05-.31l.39-.13,0-.13.39-.14,0-.13.39-.13-.05-.13.53-.18,0-.13.52-.18,0-.13.91-.32,0-.13.39-.13L16.25,46l.53-.18-.05-.13.26-.09,0-.13,1.6-.84a21.58,21.58,0,0,1,6.69-3.9l1,.69.31,0,.09.26.13,0,.74.47,3.78-1.3c.35-.65,1.1-.41,1.74-.88l0-.13.39-.14-.05-.13,1.18-.4,0-.13.52-.18,0-.13L37,38l-.05-.13.52-.18,0-.13,1.43-.49,0-.13.52-.18,0-.13,1.43-.49,0-.13.52-.18-.05-.13,2.35-.81,0-.13.87-.44,0-.13.48-.31,0-.13c.42-.45.68-.28.52-1l-.13,0L45,32.35l-.3,0-.92-.56c-.42-.19-.82-.15-1.19-.47.39-.32,1.27-.38,1.79-.76l-.05-.13.39-.13,0-.13,11.61-4c1.79-.62,4.17-1.66,5.7-1.67l.65-.22,0,.13.26-.09.05.13.39-.13,0,.13.4-.14,0,.13.57-.05,0,.14.39-.14.05.13c.46.08.58,0,.87.43l.27-.09c.75.65.89.46,1.36,1.86l-.38.57,0,.13-.26.09c0,.16-.08.32-.13.48l-.26.09.05.14-.26.09,0,.13-.52.17,0,.13-.26.09,0,.13-.65.23,0,.13-.39.13,0,.13-.91.32,0,.13-1.25.57,0,.14-.52.17L62,31l-1.26.58,0,.13-1.7.58,0,.13-.39.14,0,.13-4.44,1.52-1.25.58,0,.13-2,.67,0,.13-.39.14,0,.13L47,37.35l0,.13-.39.13.05.13-3,1a3.66,3.66,0,0,0-1.22.71L39.19,40.6l.05.13-.53.18,0,.13-5.87,2,0,.13-1.65.72c-1.75.6-4.06,1.21-5.26,2.09l-4.17,1.43-1.65.72,0,.13ZM11,52.45l-.13-.39L11,52c0-.14,0-.29,0-.44l1.18-.4,0,.13,1-.18.44.43c.27.05,1.2-.37,1.48-.36,0,.1,0,.2,0,.31l-.35.26,0,.13-.26.09,0,.13-.26.09-.12.48-.27.09c0,.1,0,.2,0,.31l-.26.09c0,.1,0,.2,0,.3l-.26.09-.21.66-.26.09,0,.3-.35.27,0,.13-.26.09-.12.48-.26.09,0,.3-.27.09.05.13-.39.14,0,.13-.26.09,0,.13-1.31.44-.57-.38.13-.05a3.78,3.78,0,0,1,.51-1.49L10,55l-.09-.27c.16-.24.31-.49.47-.74l-.09-.26ZM1.65,47.21l.13-.05,0-.13a5.38,5.38,0,0,1,2-.84l.05.13.26-.09,0,.13.65-.23,0,.13.39-.13,0,.13L5.92,46l0,.13L6.35,46l.05.13L6.79,46l0,.13.26-.09,0,.13,1-.18,0,.13.57,0,0,.13L9.54,46l.22.22.26-.09,0,.13L11.15,46l0,.13.39-.13,0,.13.57,0,0,.13,2.18,0c0,.29.06.11,0,.31-.25.48-.61.3-1.08.66l0,.13-.39.13.05.14-.53.17,0,.13-.26.09,0,.13-.52.18,0,.31-.26.09,0,.13-.26.09.05.13-.52.18,0,.13-.91.75,0-.13H9.44l-.22-.21-.57,0-.22-.21-.26.09L8,49.42H6.65L6.08,49l-.27.09-.57-.38c-.44-.14-.57,0-.87-.43l-.26.09-.05-.13-.26.09Z" style="fill:#ef7b51;fill-rule:evenodd"/><path d="M572.87,43.53h-.35a1.63,1.63,0,0,0-.11-.23h-.11c-.08-.38-.15-.76-.23-1.14H572v-.34h-.12v-.23h-.11c0-.22-.08-.45-.11-.68h-.12v-.23h-.11l-.12-.45h-.11l-.45-1.93h-.12v-.23h-.11v-.34h-.11l-.12-.46h-.11v-.34H570v-.22h-.11v-.23h-.11v-.23h-.12v-.34h-.11v-.23h-.11l-.12-.45h-.11v-.34h-.11l-.12-.46h-.11v-.34h-.12c-.07-.22-.15-.45-.22-.68h-.12v-.23h-.11V33h-.11v-.34h-.12c0-.16-.07-.31-.11-.46l-.23-.11v-.23h-.11v-.34h-.12v-.23h-.11v-.34h-.11l-.12-.79h-.11v-.23H567c-.12-.49-.23-1-.34-1.48h-.12l-.45-2h-.12c-.11-.5-.22-1-.34-1.48h-.11v-.34h-.11v-.34h-.12l-.11-.8H565c0-.34-.07-.68-.11-1h-.11v-.46h-.12v-.45h-.11v-.34h-.11V20.8h-.12v-.23h-.11v-.45h-.11v-.35H564v-.34h-.11c-.08-.41-.15-.83-.23-1.25h-.11V18h-.12c0-.27-.07-.53-.11-.8h-.11v-.34h-.12v-.57H563c0-.23-.08-.45-.11-.68h-.12v-.23h-.11c-.08-.41-.15-.83-.23-1.25h-.11v-.34h-.12v-.34h-.11v-.57H562c-.08-.23-.16-.45-.23-.68h-.11v-.34h-.12v-.23h-.11v-.23l-.23-.11v-.79h-.11v-.23h-.12V9.66h-.11V9.55h.11V9.32h.12c.05-.72.21-.63.68-.91V8.3H562l.45-.57h.23l.11-.23H563l.45-.57.46-.11V6.71l.57-.46V5.91l.56-.45.12-.57.34-.23V4.43l.45-.34V3.86l.23-.22V3.41l.34-.23V3h.12V2.39h.11V1.82h-.11V1.36h-.12c-.14-.52-.48-.45-.91-.68V.57h-.22V.46l-.8-.12V.23c-.43-.15-.6.05-.91-.23h-2.5s-.44.65-.45.68v.68l-.23.12V3.07h-.12v.34h-.11V4.55h-.11v.34H560V6.48l-.22.11V7.5h-.12v.34h-.11V9l-.34.11a2.4,2.4,0,0,0-.11.23h-.23v.11l-.68.12v.11H558v.11h-.34v.12l-.46.11v.11l-.57.12v.11h-.34v.12h-.34v.11h-.34v.11h-.34v.12l-.79.11V11h-.23v.12l-.57.11v.11h-.45v.12l-.69.11v.12h-.22v.11h-.69v.11h-.22v.12h-.23l-.11.22h-.57v.12h-.34v.11l-.46.11v.12h-.34v.11H549V13h-.34v.11h-.34v.11l-1,.12v.11l-.46.11v.12h-.23v.11l-1.59.34v.12h-.22v.11h-.23v.11l-.68.23v.11l-1.37.23v.12l-1,.22v.12l-.45.11v.11h-.34v.12l-.91.11V16h-.35v.12h-.34v.11h-.34v.11h-.34v.12h-.23v.11h-.34v.12h-.22v.11l-.69.11v.12l-.56.11v.11h-.23v.12h-.34v.11h-.23v.12L534,18v.11h-.23v.11h-.34v.12h-.34v.11h-.34v.11h-.34v.12l-1.14.11-5,1.93h-.79v.12l-.57.11V21h-.23v.12h-.34v.11H524v.12h-.57v.11H523v.11h-.34v.12h-.23v.11l-.68.11v.12h-.8v.11h-.45v.11H520v.12h-.23v.11l-.68.12v.11h-.22v.11l-.69.12v.11h-.34v.11h-.34v.12h-.34v.11l-1.36.23v.11l-.46.12V24H515v.11h-.23v.12h-.34v.11h-.68v.11h-.23v.12h-.34v.11H513v.11l-.69.12V25l-1.59.34v.12h-.34v.11l-.45.11v.12l-.68.11V26l-.46.12v.11h-.34v.12h-.23v.11l-.79.11v.12a2.11,2.11,0,0,1-.91.11v.11h-.12c.06.64.14.41.35.8V28h.11c0,.15.08.3.11.45h.12v.34l.22.12v.22h.12c0,.23.07.46.11.69h.11l.12.45h.11v.34H508v.57h.11l.23.68h.11v.23h.11v.34h.12v.34h.11V33h.11v.34H509v.22h.11v.35h.12v.22h.11v.34h.11l.12.46h.11v.34h.11l.12.45H510l.12.69h.11c0,.19.07.38.11.56h.12v.23h.11c0,.19.08.38.11.57h.12V38h.11v.45H511v.34h.12v.46h.11l.12.68h.11v.23h.11v.45h.12v.34h.11v.46H512v.45h.12v.34h.11c0,.15.08.3.11.46h.12V43h.11v.57h.12v.34h.11v.45h.11l.12.91h.11v.45h.11V46h.12v.45h.11v.23h.11l.12.68h.11l.12.45H514c.07.34.15.69.23,1h.11v.22h.11l.12.69h.11v.34h.11v.34h.12v.34H515v.34h.12v.34h.11v.34h.11c.08.46.15.91.23,1.37h.11v.34h.12v.34h.11v.56H516l.12.8h.11v.34h.12c0,.3.07.61.11.91h.11l.12,1h.11c0,.19.08.38.11.57l.46.34v1h.11l.12.56.34.12v.11h.22v.11h.46v.12h1.93a2.4,2.4,0,0,0,.11-.23h.46v-.11h.34V60l.79-.11v-.11h.23v-.12h.34v-.11h.34v-.11h.35v-.12h.34v-.11l.68-.12V59h.22v-.11l.69-.12v-.11l1.13-.23V58.3l1.48-.11v-.12l1.36-.23v-.11h.35v-.11h.34V57.5l2-.34v-.11h.34v-.11h.34v-.12h.46v-.11l1.7-.23v-.11h.34v-.12l1.37-.22v-.12l.79-.11v-.11h.34v-.12l1-.11v-.12h.34v-.11l.57-.11V55H540v-.11l2.05-.46v-.11h.23v-.11h.34v-.12h.22V54l.69-.11v-.12l.91-.11v-.11h.22v-.12H545V53.3l2.28-.46v-.11l.68-.11V52.5h.23v-.11l1.47-.34v-.12h.57v-.11h.46v-.11h.45v-.12h.57v-.11h.57v-.11h.34v-.12h.22v-.11l1.25-.23V50.8h.35v-.11h.34v-.12l1.25-.23v-.11l.45-.11V50h.34v-.11h.46v-.11h.45v-.12h.8v-.11h.34v-.12h.34v-.11l1.93-.45v-.12h.34v-.11h.34v-.11l.8-.12V48.3h.91v-.12h.22v-.11h.8V48h.34v-.12h.68v-.11l.68-.11V47.5h.23v-.11h.57v-.11h.23v-.12h.45v-.11h.34v-.12h.68v-.11H569v-.11h.46v-.12h.34v-.11h.68v-.11l.68-.23V46h.46a1.63,1.63,0,0,1,.11-.23H572v-.12a.83.83,0,0,1,.45-.22,1,1,0,0,1,.23-.46h.11l.12-.57H573C573,44.13,573.05,43.66,572.87,43.53ZM560.93,6.82h.12V6.59h.11V5.23h.11V4.77h.12c0-.49.07-1,.11-1.47h.12V1.7l.22-.11V.91H562c0-.11.07-.23.11-.34A7.26,7.26,0,0,1,564.8.8V.91c.28.21.41.5.68.68V2.73l-.34.23v.22l-.23.12c-.08.22-.15.45-.23.68l-.68.57c0,.19-.07.37-.11.56l-.68.57-.12.46-2,1.47V7.5h-.12ZM571.5,44.66l-.23.12V45h-.11l-.11.23h-.23a2.4,2.4,0,0,0-.11.23l-.57.11v.11l-.46.12v.11h-.79l-.12.23h-.56v.11H568v.12h-.68v.11h-.23v.11h-.45v.12h-.35v.11h-.56v.11h-.23v.12l-.57.11v.12h-.79v.11h-.35v.11H563v.12h-.23v.11h-.91v.11h-.22V48h-.46v.11h-.34v.11l-.8.12v.11h-.45v.12h-.34v.11h-.34v.11h-.34v.12h-.34V49h-.35v.11h-.79v.12h-.46v.11h-.45v.11l-.68.12v.11l-.46.12v.11l-.91.11v.12h-.34v.11h-.34v.11l-1.59.35v.11h-.23v.11h-.56V51h-.57v.11H550v.11h-.45v.12H549v.11h-.34v.11h-.34v.12H548v.11l-1.14.23v.11h-.23v.12l-1.36.22v.12h-.45v.11h-.46v.11H544V53h-.34v.11h-.23v.12h-.57v.11h-.34v.11h-.34v.12h-.34v.11h-.23v.11l-.56.12V54l-1.37.23v.11h-.34v.11h-.23v.12h-.34v.11h-.34v.12h-.23v.11h-.34V55l-1,.12v.11h-.34v.11h-.34v.12l-1,.11v.12h-.34v.11h-.35v.11l-2.15.34v.12H532v.11h-.34v.11l-.91.12v.11l-1.47.23v.11H529v.12h-.45v.11l-1.37.23v.11h-.68v.11h-.57V58l-.79.11v.12h-.35v.11h-.45v.11h-.23v.12h-.34v.11h-.22v.11h-.35v.12l-1,.22v.12H522v.11l-.68.12v.11H521v.11h-.45v.12h-.45v.11l-.57.11v.12c-.42,0-.61,0-.8-.23h-.11v-.34h-.12v-.23h-.11V58h-.11v-.23l-.23-.11v-.46H518v-.34h-.12c0-.34-.07-.68-.11-1h-.11v-.46h-.12V55h-.11v-.34h-.12v-.45h-.11v-.46h-.11V53.3H517v-.46h-.11V52.5h-.11v-.45h-.12v-.34h-.11v-.46h-.11v-.34h-.12v-.34h-.11v-.34H516V50h-.11c-.08-.38-.15-.76-.23-1.13h-.11v-.23h-.11c-.08-.34-.16-.68-.23-1h-.11l-.12-.46h-.11l-.12-.68h-.11v-.23h-.11v-.34h-.12v-.45h-.11c0-.31-.08-.61-.11-.91h-.12v-.46H514v-.34h-.11V43.3h-.12v-.57h-.11v-.34h-.12c0-.15-.07-.3-.11-.46h-.11l-.12-.68h-.11c0-.3-.08-.6-.11-.91h-.12V40h-.11v-.34h-.11v-.34h-.12V39h-.11v-.34h-.12v-.46h-.11v-.34h-.11v-.22H512v-.35h-.11v-.22h-.11v-.34h-.12c0-.19-.07-.38-.11-.57h-.11v-.23h-.12v-.34h-.11l-.12-.45h-.11v-.35h-.11v-.22h-.12v-.34h-.11V34h-.11l-.12-.46h-.11c0-.22-.08-.45-.11-.68H510c0-.15-.07-.3-.11-.45h-.12v-.34h-.11v-.23h-.11l-.23-.68h-.11l-.12-.91H509l-.12-.45h-.11v-.35h-.11l-.12-.56-.22-.12v-.23a2.6,2.6,0,0,1-.46-.91h-.11c-.15-.46.64-.45.91-.56v-.12l.68-.11v-.11h.23v-.12h.34v-.11h.23v-.11h.34v-.12h.22v-.11H511V26h.23v-.11l.68-.11v-.12l1.37-.22v-.12h.22v-.11l.69-.12V25h.22v-.11l1-.12,1.7-.79h.57v-.11h.45v-.12h.34v-.11H519v-.12h.23v-.11l.68-.11v-.12h.23v-.11h.34V23h.34v-.12h.34v-.11h.34v-.11h.91V22.5l.68-.11v-.12h.23v-.11l.68-.11v-.12l1-.11v-.11l.68-.12v-.11h.23v-.11h.34v-.12l1-.11V21h.34v-.11H528V20.8h.34v-.12h.23v-.11l.68-.11v-.12h.22v-.11l.69-.11V20l.45-.11v-.12h.34v-.11h.46v-.11h.34v-.12h.34v-.11h.34v-.11h.68v-.12h.34V19h.34v-.12h.46v-.11h.22v-.11h.35v-.12H535v-.11h.34V18.3h.57v-.12h.34v-.11h.34V18h.23v-.12h.34v-.11h.23v-.11l.68-.12v-.11h.23v-.12h.34v-.11h.23v-.11h.34v-.12h.22v-.11h.35v-.11h.34v-.12h.34v-.11l1-.12v-.11h.23v-.11h.34V16l.45-.11V15.8l.69-.12v-.11l1.7-.34v-.11l.68-.23v-.12h.23v-.11h.34v-.11h.23v-.12l1-.11v-.11h.23v-.12l.68-.23v-.11l1.14-.11v-.12h.22v-.11l1-.23v-.11l.45-.11v-.12h.57v-.11l.68-.23v-.11l.91-.12v-.11h.23v-.11h.34v-.12h.57v-.11l.45-.11v-.12h.34v-.11h.34v-.12h.34v-.11h.34v-.11h.34V11H557v-.11h.34V10.8h.34v-.12H558v-.11l.45-.11v-.12h.23v-.11H559v-.12l.57-.11V9.89c.23.07.1,0,.23.11.37.37,0,.74.22,1.25h.12v.23h.11c.15.45.3.91.46,1.36h.11v.23h.11v.57h.12c.07.41.15.83.22,1.25h.12v.45h.11l.12.46h.11c.11.64.23,1.28.34,1.93h.11V18h.12l.45,2h.12v.34H563v.34h.11V21h.12v.23h.11v.46h.11v.45h.12v.34h.11v.57h.11l.12.91H564l.12.79h.11v.34h.11v.35h.12v.45h.11v.23h.11v.45h.12c0,.31.07.61.11.91H565V28h.12v.34h.11v.34h.12v.45h.11c.07.34.15.69.23,1h.11v.22h.11l.12.68h.11l.11.8h.12c0,.15.07.3.11.46l.23.11v.23h.11V33H567v.22h.11v.34h.11v.23l.23.12c0,.15.08.3.11.45h.12v.34h.11l.12.57H568c0,.15.07.3.11.45h.12V36h.11v.22h.11v.23h.12v.23h.11v.34h.11v.22h.12c.07.23.15.46.23.69h.11v.34h.11v.23h.12c0,.26.07.53.11.79h.11v.34h.12v.46h.11v.45l.23.11V41h.11l.12.56h.11v.23h.11v.34l.23.11v.46h.11v.45h.12c.2.53,0,.83.45,1.14ZM560.25,32.39v.11h-.45v.12h-.46v.11h-1c-1.22.35-2.83.45-4,.91-.11-.3,0-.58-.11-.91h-.12v-.8H554v-.56h-.11V30.8h-.12v-.91h-.11v-.8h-.11v-1h-.12v-.68h-.11V26.14h-.11v-.91l-.23-.12v-.56l-.91-.23v.11H552c0,1,.07,2.05.11,3.07h.11v.34h.12v1a5,5,0,0,0,.22,1v1a15.93,15.93,0,0,1,.57,3.18,3.86,3.86,0,0,0,1.48.34v-.11h.23v-.11h.34v-.12h.34V34h.57v-.11h.34v-.12h.79v-.11l1.14-.12v-.11h.57V33.3h1v-.12l1.25-.11V33h.11v-.34h-.11A1.14,1.14,0,0,0,560.25,32.39Zm-8.86,1.13h-.23v.12c-.49.25-1.19.35-1.48.79h-.22a.49.49,0,0,0-.23-.22,3.21,3.21,0,0,0-.23-1v-.79h-.11v-.46H549a4.85,4.85,0,0,1,1.71-.56v-.23c-.42-.09-1.11-.28-1.37.11h-.45v-.11h-.12v-.46h-.11v-.45h-.11l-.12-.8h-.11v-.68h.11a3.13,3.13,0,0,1,1.25-.34h.91V28.3h.12a4.62,4.62,0,0,0-2.28-.23.27.27,0,0,1-.34.11c0-.07-.07-.15-.11-.22l-.57-.12v-.11c-.37,0-.33.1-.57.23l.12.45h.11v.8h.11v.34h.12v.57h.11v.22h.11v1.48h.12v.34h.11v.91h.11v.34H548v.68h.11v.23h.12v.8a.88.88,0,0,1,.22.22h.8l.23-.34h.34v-.11H550v-.12h.23v-.11h.23v-.11h.23v-.12h.22v-.11h.23l.23-.23h.22l.12-.22.34-.12v-.23l-.68-.11Zm-8,2.85-.91-.8v-.23l-.34-.22v-.23l-.22-.12-.12-.56-.91-.8-.11-.45-.46-.34v-.23l-.22-.11v-.23l-.34-.23v-.23c-.17-.28-.37-.39-.46-.79-.41-.06-1.87-.48-2.16-.23l-.34.11v3.53c0,.53,0,1.32-.23,1.59A7.48,7.48,0,0,1,536.5,38a2.11,2.11,0,0,1-.8-.12v-.11h-.56v-.11l-.8-.12v-.11h-.23v-.12h-.45v-.11h-.34v-.11h-.46v-.12c-.42-.13-.61.06-.91-.22h-.11v-.12a5.17,5.17,0,0,0,2.27-3.41,3.19,3.19,0,0,1-.91-.22h-2.5v.11l-.68.23v.11h-.57V33.3c-.26,0-.3.06-.45.11a4.12,4.12,0,0,0-.11,1.71H529v.34h.11v.91h.12v.22h.11v.68h.11v.35h.12v.45h.11v.46h.12v.34h.11v.34H530v.34h.12c0,.15.07.3.11.45h.11v.34h.12v.23l.22.11V41h.12a2.89,2.89,0,0,0,1.13.34v-.12h.12l-.12-.68-.22-.11c-.12-.34-.23-.69-.34-1h-.12v-.34h-.11v-.34h-.11v-.34c-.12-.3-.23-.6-.35-.91a6.54,6.54,0,0,1,2.28-.11v.11h.34v.12h.23v.11l.68.11V38h.45c.2.06,1.16.47,1.48.34l.11-.23h.23a3.81,3.81,0,0,1,0,1.82,1.48,1.48,0,0,0,.23.91,3.56,3.56,0,0,0,1.13,0c0-1.73,0-3.68.12-5.23l.68-.23v-.11h.68v-.11l1.14-.23v-.12c.5.14.52.56.91.8v.23h.22l.12.34.57.45v.23c.42.12,1,.83,1.36,1.14a2.26,2.26,0,0,1,.11.22l1,.23V38.3h.11v-.46l-1.48-1.25Zm-12-.46h-.12l-.11.23c-.22.17-.12-.12-.34.23h-.34v-.12h-.12c-.17-.29.11-.67-.22-1,0-.5-.09-1.18.22-1.36h.46v-.12c.25-.12.25,0,.45-.23h1.37v.12h.11c0,.25,0,.3-.11.45h-.12v.23h-.11v.23h-.11v.34l-.91.79Zm8.75-1.7v.11l-.57.11v.12h-.46v.11h-.45v.11l-.46.12a10.5,10.5,0,0,1-.11-2.73c0-.26-.07-.53-.11-.79l.11-.12c.53.31.58.78.91,1.25l.23.12c0,.11.07.22.11.34l.34.22c.22.31.26.59.57.8C540.18,34.21,540.27,34.08,540.14,34.21Zm6.36-3.64c-.49,0-.38.07-.68.23-.14.78-.12,2.38-.57,2.84v.11h-.11v-.11c-.35-.24,0-.16-.23-.46l-.34-.22v-.23l-.23-.11v-.23l-.79-.68v-.23l-.8-.11v-.12a1.11,1.11,0,0,0-.45.12.81.81,0,0,0,.22.56h.12v.23l.22.12v.11l.23.11v.23l.23.11v.23l.34.23c0,.22.08.45.11.68l.23.11c0,.15.08.31.11.46l.23.11.23.46.91.34a1.76,1.76,0,0,0,.68-.12,32.11,32.11,0,0,0,.8-3.18,1.88,1.88,0,0,0-.12-1.14C546.73,30.63,546.7,30.81,546.5,30.57Zm-19.66,1.59h-.34v.12h-.57v.11h-.45v.11H525v.12h-.34v.11h-.23v.11h-.34V33l-1.47.11v.11h-.35v.12H522v.11l-1.47.23v.11h-.34v.12h-.35V34h-.34v.11h-.34v.12l-.68.11v.11h-.23v.12h-.34v.11h-.22v.11h-.35v.12h-.22V35h-.34v.12h-.34v.11h-.57v.11h-.34v.12h-.57a1,1,0,0,1-.23.22l.11.23,1,.23V36H516v-.12l1.37-.23v-.11h.34v-.11H518v-.12h.34v-.11h.22v-.11h.35V35h.34v-.11h.22v-.12h.34v-.11l.69-.11v-.12c.6.08.35.15.56.57h.12v.34h.11v.23h.12v.68h.11v.23h.11v.57h.12v.45h.11c0,.38.08.76.11,1.14h.12V39h.11v.23h.11V40h.12c0,.23.07.46.11.68h.12v.23h.11c.08.23.15.46.23.68h.11c.08.38.15.76.23,1.14h.11l.12.45h.11l.11.46.23.11V44l.23.11.11.57.45.34v.34l.23.12v.68c.25,0,.22.11.23.11h.57v.12c.27-.07.25-.12.45-.23a2.06,2.06,0,0,0-.22-1.14l-.35-.22v-.23l-.22-.23v-.23h-.12v-.22l-.34-.23v-.23h-.11l-.23-.68h-.11l-.23-1.14h-.11l-.12-.45H524v-.23h-.11l-.12-.57h-.11c0-.34-.08-.68-.11-1h-.12V39h-.11v-.34h-.12V38.3h-.11v-.46H523v-.68h-.12v-.34h-.11v-.45h-.11V35.8h-.12v-.34h-.11v-.34h-.12c0-.16-.07-.31-.11-.46l-.34-.11-.23-.34.34-.12V34h.57v-.11H523v-.12h.34v-.11h.34v-.12h1v-.11h.46V33.3h.22v-.12l.8-.11V33h.34v-.12h.68v-.11h.34v-.11h.68V32.5h.12c.07-.22,0-.1.11-.22v-.12l-1.59-.11Z" style="fill:#ef7b51;fill-rule:evenodd"/></g></g></svg>