<svg xmlns="http://www.w3.org/2000/svg" viewBox="0 0 680.46 96.45"><g style="isolation:isolate"><g id="レイヤー_2" data-name="レイヤー 2"><g id="テキスト"><rect x="0.23" y="0.22" width="680" height="96" style="fill:#ffdcd7;opacity:0.9"/><polygon points="32.35 64.35 31.39 64 30.55 64.35 29.71 64.39 28.87 64.24 28.03 64.19 27.2 64.35 26.36 64.09 25.51 64.18 24.67 63.99 23.83 64.16 22.99 64.39 22.15 64.11 21.31 64.3 20.47 64.1 19.63 64.31 18.78 64.39 17.94 64.11 17.1 64.44 16.26 64.35 15.42 64.43 14.57 64.38 13.73 64.2 12.89 64.44 12.05 64.37 11.21 64.19 10.37 64.41 9.53 63.99 8.68 64.08 7.84 64 7 64.23 6.15 64.21 5.31 64.27 4.46 64.35 3.62 64.02 2.77 64.28 1.93 64.33 1.08 64.15 0.3 64.15 0.41 63.38 0.39 62.54 0.32 61.71 0.16 60.87 0.23 60.03 0.01 59.19 0.09 58.35 0.36 57.51 0.12 56.67 0.26 55.83 0.08 54.98 0.34 54.15 0.15 53.3 0.27 52.46 0.02 51.62 0.42 50.78 0.24 49.94 0.17 49.1 0.22 48.25 0.46 47.41 0 46.57 0.22 45.73 0.08 44.88 0.43 44.04 0.29 43.2 0.1 42.36 0.34 41.52 0.06 40.68 0.19 39.83 0.33 38.99 0 38.15 0.15 37.3 0.43 36.46 0.31 35.62 0.35 34.77 0.05 33.92 0.15 33.07 0.27 32.26 1.07 32.15 1.91 32.39 2.74 32.2 3.58 32.06 4.42 32.1 5.26 32 6.1 32.23 6.94 32.44 7.78 32.42 8.62 32.19 9.46 32.36 10.3 32.02 11.14 32 11.98 32.33 12.83 32.35 13.67 32.3 14.51 32.09 15.35 32.19 16.2 32.09 17.04 32.34 17.88 32 18.72 32.39 19.56 32.35 20.41 32.26 21.25 32.3 22.09 32.17 22.93 32.16 23.77 32.27 24.61 32.09 25.46 32.06 26.3 32.4 27.15 32.45 27.99 32.11 28.83 32.43 29.68 32.42 30.53 32.21 31.38 32.16 32.34 32.1 32.16 33.06 32.39 33.9 32.2 34.74 32.26 35.58 32.3 36.41 32.16 37.25 32.13 38.09 32.3 38.94 32.26 39.78 32.24 40.62 32.07 41.46 32.25 42.3 32.45 43.14 32.44 43.98 32.26 44.82 32.15 45.66 32.15 46.51 32.03 47.35 32.4 48.19 32.35 49.03 32.1 49.88 32.01 50.72 32.41 51.56 32.31 52.4 32.37 53.24 32.04 54.08 32.01 54.92 32.42 55.77 32.42 56.61 32 57.45 32.01 58.3 32.45 59.14 32.31 59.98 32.31 60.83 32.39 61.67 32.31 62.52 32.03 63.38 32.35 64.35" style="fill:#ef7b51"/><g style="opacity:0.25;mix-blend-mode:multiply"><polygon points="32.37 32.36 31.39 32.24 30.55 32.02 29.71 32.22 28.87 32.42 28.03 32.29 27.2 32.38 26.36 32.28 25.51 32.3 24.67 32.01 23.83 32.27 22.99 32.25 22.15 32.21 21.31 32.37 20.47 32.42 19.63 32.37 18.78 32.19 17.94 32.13 17.1 32 16.26 32.38 15.42 32.08 14.57 32.03 13.73 32.13 12.89 32.28 12.05 32.35 11.21 32.39 10.37 32.4 9.53 32 8.68 32.22 7.84 32.15 7 32.37 6.15 32.09 5.31 32.21 4.46 32.13 3.62 32.33 2.77 32.01 1.93 32.09 1.08 32.1 0.25 32.2 0.28 31.38 0.23 30.54 0.44 29.71 0.34 28.87 0.15 28.03 0.34 27.19 0.22 26.35 0.14 25.51 0.34 24.67 0.22 23.82 0.21 22.98 0.42 22.14 0.36 21.3 0.44 20.46 0.11 19.62 0.04 18.78 0.02 17.94 0.43 17.1 0.29 16.25 0.29 15.41 0.33 14.57 0.27 13.73 0.45 12.88 0.03 12.04 0.23 11.2 0.27 10.36 0.26 9.52 0.15 8.68 0.1 7.83 0.33 6.99 0.15 6.15 0.21 5.3 0.06 4.46 0.03 3.62 0.21 2.77 0.06 1.92 0.02 1.07 0.08 0.08 1.07 0.25 1.91 0.28 2.74 0.43 3.58 0.4 4.42 0.09 5.26 0.29 6.1 0.18 6.94 0.1 7.78 0.24 8.62 0.1 9.46 0.27 10.3 0.28 11.14 0.3 11.98 0.44 12.83 0.31 13.67 0.05 14.51 0.23 15.35 0.07 16.2 0.04 17.04 0.36 17.88 0.42 18.72 0.02 19.56 0.43 20.41 0.4 21.25 0.33 22.09 0.25 22.93 0.12 23.77 0.36 24.61 0.16 25.46 0.29 26.3 0.19 27.15 0.04 27.99 0.44 28.83 0.1 29.68 0.06 30.53 0.2 31.38 0.26 32.32 0.13 32.09 1.06 32.19 1.9 32 2.74 32.16 3.58 32.4 4.42 32.12 5.25 32.31 6.09 32.1 6.93 32.31 7.78 32.39 8.62 32.11 9.46 32.44 10.3 32.35 11.14 32.43 11.98 32.39 12.82 32.2 13.66 32.44 14.51 32.37 15.35 32.19 16.19 32.41 17.03 32 17.88 32.09 18.72 32 19.56 32.24 20.4 32.21 21.24 32.28 22.08 32.36 22.92 32.03 23.77 32.28 24.61 32.33 25.45 32.15 26.3 32.13 27.14 32.05 27.98 32.07 28.83 32.13 29.67 32.29 30.52 32.22 31.37 32.37 32.36" style="fill:#ef7b51"/></g><polygon points="680.28 32.28 679.39 32.24 678.55 32.12 677.71 32.2 676.87 32.08 676.03 32.3 675.2 32.35 674.36 32.09 673.51 32.1 672.67 32.12 671.83 32.22 670.99 32.14 670.15 32.38 669.31 32.22 668.47 32.45 667.63 32.19 666.78 32.39 665.94 32.05 665.1 32.07 664.26 32.24 663.42 32.05 662.57 32.34 661.73 32.15 660.89 32.21 660.05 32.15 659.21 32.34 658.37 32.2 657.53 32.06 656.68 32.17 655.84 32.35 655 32.27 654.15 32.14 653.31 32.02 652.46 32.02 651.62 32.41 650.77 32.06 649.93 32.02 649.08 32.2 648.14 32.31 648.36 31.38 648.4 30.54 648.05 29.71 648.33 28.87 648.25 28.03 648.26 27.19 648.26 26.35 648.01 25.51 648.19 24.67 648.08 23.82 648.06 22.98 648.46 22.14 648.12 21.3 648.42 20.46 648.14 19.62 648.33 18.78 648.38 17.94 648 17.1 648.31 16.25 648.42 15.41 648.12 14.57 648.45 13.73 648.01 12.88 648.46 12.04 648.37 11.2 648.07 10.36 648.23 9.52 648.1 8.68 648.28 7.83 648.37 6.99 648.24 6.15 648.15 5.3 648.19 4.46 648.27 3.62 648.14 2.77 648.02 1.92 648.32 1.07 648.08 0.08 649.07 0.17 649.9 0.2 650.74 0.17 651.58 0.14 652.42 0.17 653.26 0.06 654.1 0.39 654.94 0.07 655.78 0.02 656.62 0 657.46 0.33 658.3 0.27 659.14 0.05 659.99 0.13 660.83 0.3 661.67 0.33 662.51 0.35 663.35 0.43 664.2 0.42 665.04 0.29 665.88 0.18 666.72 0.07 667.56 0.05 668.41 0.19 669.25 0.21 670.09 0.38 670.93 0.09 671.77 0.29 672.61 0.43 673.46 0.28 674.3 0.42 675.15 0.03 675.99 0.2 676.83 0.42 677.68 0.22 678.53 0.02 679.38 0.15 680.34 0.11 680.29 1.06 680.3 1.9 680.01 2.74 680.28 3.58 680.26 4.42 680.22 5.25 680.37 6.09 680.42 6.93 680.37 7.78 680.2 8.62 680.13 9.46 680 10.3 680.39 11.14 680.08 11.98 680.03 12.82 680.13 13.66 680.28 14.51 680.35 15.35 680.4 16.19 680.4 17.03 680 17.88 680.22 18.72 680.16 19.56 680.37 20.4 680.1 21.24 680.22 22.08 680.13 22.92 680.33 23.77 680.01 24.61 680.09 25.45 680.1 26.3 680.19 27.14 680.18 27.98 680.23 28.83 680.01 29.67 680.11 30.52 680.3 31.37 680.28 32.28" style="fill:#ef7b51"/><g style="opacity:0.25;mix-blend-mode:multiply"><polygon points="32.37 96.36 31.39 96.24 30.55 96.02 29.71 96.22 28.87 96.42 28.03 96.29 27.2 96.38 26.36 96.28 25.51 96.3 24.67 96.01 23.83 96.27 22.99 96.25 22.15 96.21 21.31 96.37 20.47 96.42 19.63 96.37 18.78 96.19 17.94 96.13 17.1 96 16.26 96.38 15.42 96.08 14.57 96.03 13.73 96.13 12.89 96.28 12.05 96.35 11.21 96.39 10.37 96.4 9.53 96 8.68 96.22 7.84 96.15 7 96.37 6.15 96.09 5.31 96.21 4.46 96.13 3.62 96.33 2.77 96.01 1.93 96.08 1.08 96.1 0.25 96.2 0.28 95.38 0.23 94.54 0.44 93.71 0.34 92.87 0.15 92.03 0.34 91.19 0.22 90.35 0.14 89.51 0.34 88.67 0.22 87.83 0.21 86.98 0.42 86.14 0.36 85.3 0.44 84.46 0.11 83.62 0.04 82.78 0.02 81.94 0.43 81.1 0.29 80.25 0.29 79.41 0.33 78.57 0.27 77.73 0.45 76.89 0.03 76.04 0.23 75.2 0.27 74.36 0.26 73.52 0.15 72.68 0.1 71.83 0.33 70.99 0.15 70.15 0.21 69.3 0.06 68.46 0.03 67.62 0.21 66.77 0.06 65.92 0.02 65.07 0.08 64.08 1.07 64.25 1.91 64.28 2.74 64.43 3.58 64.4 4.42 64.09 5.26 64.29 6.1 64.19 6.94 64.1 7.78 64.24 8.62 64.1 9.46 64.27 10.3 64.28 11.14 64.3 11.98 64.44 12.83 64.31 13.67 64.05 14.51 64.23 15.35 64.07 16.2 64.03 17.04 64.36 17.88 64.42 18.72 64.02 19.56 64.44 20.41 64.4 21.25 64.33 22.09 64.25 22.93 64.12 23.77 64.36 24.61 64.16 25.46 64.29 26.3 64.19 27.15 64.05 27.99 64.44 28.83 64.09 29.68 64.06 30.53 64.2 31.38 64.26 32.32 64.13 32.09 65.06 32.19 65.9 32 66.74 32.16 67.58 32.4 68.42 32.12 69.25 32.31 70.09 32.1 70.94 32.31 71.78 32.39 72.62 32.11 73.46 32.44 74.3 32.35 75.14 32.43 75.98 32.39 76.82 32.2 77.67 32.44 78.51 32.37 79.35 32.19 80.19 32.41 81.03 32 81.88 32.09 82.72 32 83.56 32.24 84.4 32.21 85.24 32.28 86.08 32.36 86.92 32.03 87.77 32.28 88.61 32.33 89.45 32.15 90.3 32.13 91.14 32.05 91.98 32.07 92.83 32.13 93.67 32.29 94.52 32.22 95.37 32.37 96.36" style="fill:#ef7b51"/></g><polygon points="680.28 96.28 679.39 96.24 678.55 96.12 677.71 96.2 676.87 96.08 676.03 96.3 675.2 96.35 674.36 96.09 673.51 96.1 672.67 96.12 671.83 96.22 670.99 96.14 670.15 96.38 669.31 96.22 668.47 96.45 667.63 96.19 666.78 96.39 665.94 96.05 665.1 96.07 664.26 96.25 663.42 96.05 662.57 96.34 661.73 96.15 660.89 96.21 660.05 96.15 659.21 96.33 658.37 96.2 657.53 96.06 656.68 96.17 655.84 96.36 655 96.27 654.15 96.14 653.31 96.03 652.46 96.02 651.62 96.41 650.77 96.06 649.93 96.02 649.08 96.19 648.14 96.31 648.36 95.38 648.4 94.54 648.05 93.71 648.33 92.87 648.25 92.03 648.26 91.19 648.26 90.35 648.01 89.51 648.19 88.67 648.08 87.83 648.06 86.98 648.46 86.14 648.12 85.3 648.42 84.46 648.14 83.62 648.33 82.78 648.38 81.94 648 81.1 648.31 80.25 648.42 79.41 648.12 78.57 648.45 77.73 648.01 76.89 648.46 76.04 648.37 75.2 648.07 74.36 648.23 73.52 648.1 72.68 648.28 71.83 648.37 70.99 648.24 70.15 648.15 69.3 648.19 68.46 648.27 67.62 648.14 66.77 648.02 65.92 648.32 65.07 648.08 64.08 649.07 64.17 649.9 64.2 650.74 64.17 651.58 64.14 652.42 64.17 653.26 64.06 654.1 64.39 654.94 64.06 655.78 64.02 656.62 64 657.46 64.33 658.3 64.27 659.14 64.05 659.99 64.13 660.83 64.3 661.67 64.33 662.51 64.35 663.35 64.43 664.2 64.42 665.04 64.29 665.88 64.18 666.72 64.08 667.56 64.05 668.41 64.19 669.25 64.22 670.09 64.38 670.93 64.09 671.77 64.29 672.61 64.43 673.46 64.28 674.3 64.42 675.15 64.03 675.99 64.2 676.83 64.42 677.68 64.22 678.53 64.02 679.38 64.15 680.34 64.11 680.29 65.06 680.3 65.9 680.01 66.74 680.28 67.58 680.26 68.42 680.22 69.25 680.37 70.09 680.42 70.94 680.37 71.78 680.2 72.62 680.13 73.46 680 74.3 680.39 75.14 680.08 75.98 680.03 76.82 680.13 77.67 680.28 78.51 680.35 79.35 680.4 80.19 680.4 81.03 680 81.88 680.22 82.72 680.16 83.56 680.37 84.4 680.1 85.24 680.22 86.08 680.13 86.92 680.33 87.77 680.01 88.61 680.09 89.45 680.1 90.3 680.19 91.14 680.18 91.98 680.23 92.83 680.01 93.67 680.11 94.52 680.3 95.37 680.28 96.28" style="fill:#ef7b51"/><g style="opacity:0.25;mix-blend-mode:multiply"><polygon points="680.29 64.29 679.39 64.14 678.55 64.22 677.71 64.22 676.87 64.04 676.03 64.01 675.2 64.03 674.36 64.33 673.51 64.32 672.67 64.25 671.83 64.41 670.99 64.28 670.15 64.44 669.31 64.34 668.47 64.12 667.63 64.13 666.78 64.28 665.94 64.12 665.1 64.25 664.26 64.04 663.42 64.02 662.57 64.23 661.73 64.43 660.89 64.38 660.05 64.37 659.21 64.41 658.37 64.06 657.53 64.4 656.68 64.03 655.84 64.07 655 64.05 654.15 64.38 653.31 64.04 652.46 64.27 651.62 64.44 650.77 64.09 649.93 64.2 649.08 64.33 648.34 64.11 648.13 63.38 648.04 62.54 648.12 61.71 648.34 60.87 648.14 60.03 648.4 59.19 648.21 58.35 648.3 57.51 648.43 56.67 648.09 55.83 648.22 54.98 648.41 54.15 648.16 53.3 648.4 52.46 648.29 51.62 648.38 50.78 648.46 49.94 648.05 49.1 648.03 48.25 648.4 47.41 648.17 46.57 648.18 45.73 648.02 44.88 648.31 44.04 648.1 43.2 648.1 42.36 648.27 41.52 648.19 40.68 648.07 39.83 648.19 38.99 648.34 38.15 648.44 37.3 648.34 36.46 648.45 35.62 648.4 34.77 648.35 33.92 648 33.07 648.26 32.26 649.07 32.34 649.9 32.25 650.74 32.08 651.58 32.31 652.42 32.02 653.26 32.06 654.1 32 654.94 32.19 655.78 32.2 656.62 32.39 657.46 32.43 658.3 32.27 659.14 32.08 659.99 32.35 660.83 32.03 661.67 32.22 662.51 32.36 663.35 32.13 664.2 32.45 665.04 32.29 665.88 32.38 666.72 32.04 667.56 32.4 668.41 32.12 669.25 32.07 670.09 32.13 670.93 32.41 671.77 32.12 672.61 32.26 673.46 32.22 674.3 32.28 675.15 32.14 675.99 32.2 676.83 32.33 677.68 32.24 678.53 32.37 679.38 32.14 680.32 32.13 680.1 33.06 680.1 33.9 680.13 34.74 680.22 35.58 680.15 36.41 680.39 37.25 680.22 38.09 680.46 38.94 680.19 39.78 680.4 40.62 680.05 41.46 680.08 42.3 680.25 43.14 680.06 43.98 680.35 44.82 680.15 45.66 680.21 46.51 680.15 47.35 680.34 48.19 680.21 49.03 680.07 49.88 680.18 50.72 680.36 51.56 680.28 52.4 680.14 53.24 680.03 54.08 680.02 54.92 680.41 55.77 680.07 56.61 680.02 57.45 680.2 58.3 680.35 59.14 680.09 59.98 680.05 60.83 680.41 61.67 680.13 62.52 680.2 63.37 680.29 64.29" style="fill:#ef7b51"/></g></g></g></g></svg>