<svg xmlns="http://www.w3.org/2000/svg" xmlns:xlink="http://www.w3.org/1999/xlink" viewBox="0 0 509.94 531.47"><defs><clipPath id="clip-path" transform="translate(229 41.47)"><rect width="256" height="320" style="fill:none"/></clipPath></defs><g id="レイヤー_2" data-name="レイヤー 2"><g id="写真"><g style="clip-path:url(#clip-path)"><image width="4000" height="2668" transform="translate(0 0) scale(0.13)" xlink:href="pixta_30522231_L.jpg"/></g><path d="M256,245.18l-256,35V490H255.9a.09.09,0,0,0,.1-.1Z" transform="translate(229 41.47)" style="fill:#ffb05b"/></g><g id="テキスト"><rect x="421.01" y="317.4" width="14.76" height="2.44" style="fill:#fff"/><rect x="421.01" y="307.5" width="20.19" height="2.44" style="fill:#fff"/><rect x="421.01" y="297.6" width="28.76" height="2.44" style="fill:#fff"/><rect x="436.21" y="287.71" width="13.55" height="2.44" style="fill:#fff"/><path d="M228.55,286.61a2.57,2.57,0,0,1-2.56,2.57h-39.2a2.57,2.57,0,0,1-2.56-2.57V250.17h15.68a3.16,3.16,0,0,0,3.15-3.15V231.3H226a2.56,2.56,0,0,1,2.56,2.56v18.52l3.3-3.29V233.86A5.87,5.87,0,0,0,226,228H202.2a6.43,6.43,0,0,0-4.55,1.89l-14.83,14.83a6.45,6.45,0,0,0-1.89,4.56v37.33a5.87,5.87,0,0,0,5.86,5.87H226a5.87,5.87,0,0,0,5.86-5.87V270.85l-3.3,3.29Zm-28.43-54.53v13.18c0,1.42-.55,2-2,2H185Z" transform="translate(229 41.47)" style="fill:#fff"/><path d="M241.27,254l-3.49-3.5a1.56,1.56,0,0,0-2.21,0l-2.26,2.27,5.7,5.7,2.26-2.27A1.55,1.55,0,0,0,241.27,254Z" transform="translate(229 41.47)" style="fill:#fff"/><polygon points="441.2 315.39 439.25 323.03 446.9 321.09 441.2 315.39" style="fill:#fff"/><path d="M213.36,272.75l5.7,5.7L238,259.54l-5.7-5.7Zm21.11-14.11L218,275.11l-1.3-1.29,16.48-16.48Z" transform="translate(229 41.47)" style="fill:#fff"/></g></g></svg>