<svg xmlns="http://www.w3.org/2000/svg" xmlns:xlink="http://www.w3.org/1999/xlink" viewBox="0 0 550.5 557.76"><defs><clipPath id="clip-path" transform="translate(21.48 67.76)"><rect width="256" height="320" style="fill:none"/></clipPath></defs><g id="レイヤー_2" data-name="レイヤー 2"><g id="写真"><g style="clip-path:url(#clip-path)"><image width="1000" height="662" transform="scale(0.55)" xlink:href="pixta_32632935_L(%E8%B3%BC%E5%85%A5%E6%B8%88%EF%BC%89.jpg"/></g><polygon points="277.48 312.93 21.48 347.94 21.48 557.76 277.48 557.76 277.48 397.76 277.48 312.93" style="fill:#fa9ccb"/></g><g id="テキスト"><rect x="216.86" y="286.23" width="27.52" height="4.82" rx="1.76" style="fill:#fff"/><path d="M223.37,233.68h-5.71V223.36h-3.09v10.32H203.73V223.36h-3.09v10.32h-5.71a10.56,10.56,0,0,0-10.55,10.55V282a10.55,10.55,0,0,0,8.83,10.4v1.7a1.41,1.41,0,0,0,1.41,1.41h.94a1.41,1.41,0,0,0,1.41-1.41v-1.55h24.36v1.55a1.41,1.41,0,0,0,1.41,1.41h.94a1.41,1.41,0,0,0,1.41-1.41v-1.7a10.55,10.55,0,0,0,8.83-10.4V244.23A10.56,10.56,0,0,0,223.37,233.68Zm7.62,49a7,7,0,0,1-2.35,4.71,6.91,6.91,0,0,1-3.91,2.1H193.57a6.88,6.88,0,0,1-3.91-2.1,6.79,6.79,0,0,1-2.15-4.71V243.5a6.81,6.81,0,0,1,2.15-4.71,6.63,6.63,0,0,1,4.72-1.95h29.54a6.65,6.65,0,0,1,4.72,1.95A7,7,0,0,1,231,243.5Z" transform="translate(21.48 67.76)" style="fill:#fff"/><path d="M196.2,247.83A1.15,1.15,0,0,0,195,249V279.9a1.16,1.16,0,1,0,2.31,0V249A1.14,1.14,0,0,0,196.2,247.83Z" transform="translate(21.48 67.76)" style="fill:#fff"/><path d="M204.83,247.83a1.14,1.14,0,0,0-1.15,1.15V279.9a1.16,1.16,0,1,0,2.31,0V249A1.15,1.15,0,0,0,204.83,247.83Z" transform="translate(21.48 67.76)" style="fill:#fff"/><path d="M213.47,247.83a1.15,1.15,0,0,0-1.16,1.15V279.9a1.16,1.16,0,1,0,2.31,0V249A1.15,1.15,0,0,0,213.47,247.83Z" transform="translate(21.48 67.76)" style="fill:#fff"/><path d="M222.1,247.83a1.15,1.15,0,0,0-1.16,1.15V279.9a1.16,1.16,0,1,0,2.31,0V249A1.14,1.14,0,0,0,222.1,247.83Z" transform="translate(21.48 67.76)" style="fill:#fff"/></g></g></svg>