<svg xmlns="http://www.w3.org/2000/svg" xmlns:xlink="http://www.w3.org/1999/xlink" viewBox="0 0 430.93 490"><defs><clipPath id="clip-path" transform="translate(32.59 0)"><rect width="256" height="320" style="fill:none"/></clipPath><clipPath id="clip-path-2" transform="translate(32.59 0)"><rect x="157.62" y="222.48" width="70.13" height="70" style="fill:none"/></clipPath></defs><g id="レイヤー_2" data-name="レイヤー 2"><g id="写真"><g style="clip-path:url(#clip-path)"><image width="2000" height="1333" transform="scale(0.22)" xlink:href="pixta_65686792_M%E3%83%A9%E3%82%A4%E3%83%95%E3%82%B5%E3%83%9B%E3%82%9A%E3%83%BC%E3%83%88%EF%BC%88%E5%A5%B3%E6%80%A7%EF%BC%89.jpg"/></g><path d="M0,280.18V490H255.9a.09.09,0,0,0,.1-.1V245.18Z" transform="translate(32.59 0)" style="fill:#69c878"/></g><g id="テキスト"><circle cx="191.12" cy="270.89" r="6.29" style="fill:#fff"/><circle cx="259.36" cy="262.05" r="4.44" style="fill:#fff"/><circle cx="267.52" cy="276.96" r="6.83" style="fill:#fff"/><g style="clip-path:url(#clip-path-2)"><path d="M184.25,224.53a20.5,20.5,0,0,0-6.26,3.73,24.54,24.54,0,0,0-7.77,13.08,27.49,27.49,0,0,0-.73,5.72c-.11,6,1.2,13.18,3,16.41a6.76,6.76,0,0,0,5.36,3.34,20.48,20.48,0,0,0,5.23,9.61v1.25a1.05,1.05,0,0,1-.4.23,12.21,12.21,0,0,1-2,.51,17.89,17.89,0,0,0-2.69.67c-1.12.39-2.62.82-4.24,1.43a18.88,18.88,0,0,0-7.34,4.55,14.36,14.36,0,0,0-3.67,10.23c0,.63,0,1.28.08,2a2.3,2.3,0,0,0,.41,1.11,4.91,4.91,0,0,0,1.43,1.32,19.87,19.87,0,0,0,4.18,2c5.31,1.89,14.06,3.62,24.91,3.62a84.42,84.42,0,0,0,21.57-2.58,34.28,34.28,0,0,0,6.35-2.31,10,10,0,0,0,1.92-1.25,4.16,4.16,0,0,0,.69-.76,2.36,2.36,0,0,0,.4-1.11q.09-1,.09-1.95a15.52,15.52,0,0,0-1.76-7.55,14.83,14.83,0,0,0-6.77-6.13,62,62,0,0,0-6.7-2.53,36.4,36.4,0,0,0-4.21-1,2.85,2.85,0,0,1-.88-.35h0v-1.26a20.57,20.57,0,0,0,5.23-9.61c.12-.06,8.85.2,8.33-19.75a27.49,27.49,0,0,0-.73-5.72,24.47,24.47,0,0,0-7.76-13.08,20.75,20.75,0,0,0-6.27-3.73,15,15,0,0,0-5.92-1.12,14.33,14.33,0,0,0-3.57.46,14.27,14.27,0,0,0-3.57-.46A17.86,17.86,0,0,0,184.25,224.53Zm-11.88,23.14A26.37,26.37,0,0,1,173,242a21.61,21.61,0,0,1,6.84-11.56,16.15,16.15,0,0,1,10.31-4.16,11.57,11.57,0,0,1,3.18.44,1.51,1.51,0,0,0,.79,0,11.5,11.5,0,0,1,3.17-.44,16.13,16.13,0,0,1,10.31,4.16A21.62,21.62,0,0,1,214.47,242a23.21,23.21,0,0,1,.65,5.07c.18,15.59-4.55,16.41-4.55,16.41l-1-11.31-.52-.3c-3.35-2.57-8.11-12-8.11-12-2.43,1.67-10.38,8.35-21.61,11.86a13.4,13.4,0,0,0-1.34.47l-1,11.66S172.47,263.47,172.37,247.67Zm29.4,36.82c-1.54,1.51-4,2.66-8,2.67s-6.49-1.16-8-2.67a7.29,7.29,0,0,1-2-3.92,4.25,4.25,0,0,0,1.13-.63,3,3,0,0,0,.81-1,2.83,2.83,0,0,0,.3-1.34v-1.74a1.48,1.48,0,0,0-.36-1,17.9,17.9,0,0,1-5.09-9.39,1.42,1.42,0,0,0-.93-1.1c-.45-.17-.19-2.25-.19-2.25l.82-8.6c10.53-2.72,19.89-10.21,19.89-10.21s4.07,8.17,7.25,10.21l.82,8.6s.27,2.08-.19,2.25a1.42,1.42,0,0,0-.93,1.1,17.82,17.82,0,0,1-5.08,9.39,1.44,1.44,0,0,0-.37,1v1.74a3.12,3.12,0,0,0,.28,1.31,3.19,3.19,0,0,0,1.51,1.45l.45.18A7.22,7.22,0,0,1,201.77,284.49Z" transform="translate(32.59 0)" style="fill:#fff"/><path d="M187.61,258.79a1.82,1.82,0,1,0-1.82-1.82A1.81,1.81,0,0,0,187.61,258.79Z" transform="translate(32.59 0)" style="fill:#fff"/><path d="M199.87,255.16a1.82,1.82,0,1,0,1.82,1.81A1.81,1.81,0,0,0,199.87,255.16Z" transform="translate(32.59 0)" style="fill:#fff"/><path d="M193.8,269.75a7.38,7.38,0,0,1-4.63-1.92A.59.59,0,0,1,190,267a5.37,5.37,0,0,0,7.65,0,.59.59,0,0,1,.81.85A7.43,7.43,0,0,1,193.8,269.75Z" transform="translate(32.59 0)" style="fill:#fff"/><path d="M187,268a.58.58,0,0,1-.59-.58,6.82,6.82,0,0,1,1.53-3.8.59.59,0,0,1,.82-.08.6.6,0,0,1,.08.83,5.71,5.71,0,0,0-1.26,3.05A.58.58,0,0,1,187,268Z" transform="translate(32.59 0)" style="fill:#fff"/><path d="M193,232a16.4,16.4,0,0,0-9.68,2.91,15.52,15.52,0,0,0-5.16,5.66" transform="translate(32.59 0)" style="fill:none;stroke:#fff;stroke-linecap:round;stroke-linejoin:round;stroke-width:2px"/><path d="M193.61,236.26a13.14,13.14,0,0,0-7.12,2.76c-4,3-4.45,4.67-4.45,4.67" transform="translate(32.59 0)" style="fill:none;stroke:#fff;stroke-linecap:round;stroke-linejoin:round;stroke-width:2px"/><path d="M201.19,268.84a.54.54,0,0,1-.58-.49c0-2-2.4-4-2.42-4a.45.45,0,0,1,0-.71.68.68,0,0,1,.83,0c.11.1,2.76,2.38,2.76,4.74A.54.54,0,0,1,201.19,268.84Z" transform="translate(32.59 0)" style="fill:#fff"/><path d="M203.13,236.71a9.71,9.71,0,0,1,5.14,3.55,14.57,14.57,0,0,1,2.72,6" transform="translate(32.59 0)" style="fill:none;stroke:#fff;stroke-linecap:round;stroke-linejoin:round;stroke-width:2px"/></g></g></g></svg>