<svg xmlns="http://www.w3.org/2000/svg" xmlns:xlink="http://www.w3.org/1999/xlink" viewBox="0 0 421.68 490"><defs><clipPath id="clip-path" transform="translate(152.18 0)"><rect width="256" height="320" style="fill:none"/></clipPath></defs><g id="レイヤー_2" data-name="レイヤー 2"><g id="写真"><g style="clip-path:url(#clip-path)"><image width="2000" height="1333" transform="translate(0 0) scale(0.21)" xlink:href="pixta_54448512_M%E3%83%A9%E3%82%A4%E3%83%95%E3%82%B5%E3%83%9B%E3%82%9A%E3%83%BC%E3%83%88%EF%BC%88%E4%B8%8D%E5%8B%95%E7%94%A3%EF%BC%89.jpg"/></g><path d="M256,245.18l-256,35V490H255.9a.09.09,0,0,0,.1-.1V330h0Z" transform="translate(152.18 0)" style="fill:#6dcfee"/></g><g id="テキスト"><path d="M177.82,228.13v64.35h52.79V228.13Zm49.82,61.58H207.56V276.82h-6.69v12.89H180.79V230.8h46.85Z" transform="translate(152.18 0)" style="fill:#fff"/><rect x="340.28" y="238.15" width="6.44" height="6.44" style="fill:#fff"/><rect x="353.17" y="238.15" width="6.44" height="6.44" style="fill:#fff"/><rect x="366.06" y="238.15" width="6.44" height="6.44" style="fill:#fff"/><rect x="340.28" y="251.04" width="6.44" height="6.44" style="fill:#fff"/><rect x="353.17" y="251.04" width="6.44" height="6.44" style="fill:#fff"/><rect x="366.06" y="251.04" width="6.44" height="6.44" style="fill:#fff"/><rect x="340.28" y="263.93" width="6.44" height="6.44" style="fill:#fff"/><rect x="353.17" y="263.93" width="6.44" height="6.44" style="fill:#fff"/><rect x="366.06" y="263.93" width="6.44" height="6.44" style="fill:#fff"/><rect x="340.28" y="276.82" width="6.44" height="6.44" style="fill:#fff"/><rect x="366.06" y="276.82" width="6.44" height="6.44" style="fill:#fff"/></g></g></svg>